<svg id="OBJECTS" xmlns="http://www.w3.org/2000/svg" width="699.18" height="427.44" viewBox="0 0 699.18 427.44"><defs><style>.cls-1{opacity:0.8;}.cls-2{opacity:0.5;}.cls-3{fill:#ced3e6;}.cls-4{fill:#fff;}.cls-5{fill:#39393b;}.cls-6{fill:#df615c;}.cls-7{fill:#21b573;}.cls-8{fill:#d2dcec;}.cls-9{fill:none;}.cls-10{fill:#ea9b7a;}.cls-11{fill:#d46a43;}.cls-12{fill:#217c58;}.cls-13{fill:#585859;}.cls-14{fill:#a92f4b;}.cls-15{fill:#faaf3a;}.cls-16{fill:#c77e2e;}.cls-17{fill:#084fc7;}.cls-18{fill:#0875f7;}.cls-19{fill:#fc1557;}.cls-20{fill:#ebb12b;}.cls-21{fill:#0f874e;}.cls-22{fill:#243434;}.cls-23{fill:#564c54;}.cls-24{fill:#dd615c;}</style></defs><title>3794014</title><g class="cls-1"><g class="cls-2"><path class="cls-3" d="M378.57,168.79a145.87,145.87,0,0,1-66.5-28.18c-29.38-22.17-90.85-59.9-149.49-41.11C81.69,125.42,81.33,200.41,102.4,241.14s170.47,160,364.16,141c173.33-17,207.1-211.39,114.66-246.57C501.05,105.09,473.69,182.84,378.57,168.79Z" transform="translate(-24.12 -45.25)"/></g><g class="cls-2"><ellipse class="cls-3" cx="603.98" cy="94.77" rx="7.52" ry="8.09"/></g><path class="cls-3" d="M137.42,86.73a4.89,4.89,0,0,1,5.46,3c1.38,3.76-2.25,8-7.13,6.08h0C131.54,92.74,133.38,87.48,137.42,86.73Z" transform="translate(-24.12 -45.25)"/><circle class="cls-3" cx="607.58" cy="67.72" r="9.79" transform="translate(105.96 404.21) rotate(-45)"/><g class="cls-1"><path class="cls-3" d="M167.1,79a9.89,9.89,0,1,1-12.19-6.85A9.88,9.88,0,0,1,167.1,79Z" transform="translate(-24.12 -45.25)"/></g><path class="cls-3" d="M558.41,373.66a4.87,4.87,0,0,1,5.92,2c2.06,3.43-.72,8.24-5.87,7.29h0C553.75,380.65,554.57,375.14,558.41,373.66Z" transform="translate(-24.12 -45.25)"/><path class="cls-3" d="M586.13,360.55a9.89,9.89,0,1,1-13.25-4.46A9.89,9.89,0,0,1,586.13,360.55Z" transform="translate(-24.12 -45.25)"/><path class="cls-3" d="M595.16,52.73a6,6,0,1,1-6-6A6,6,0,0,1,595.16,52.73Z" transform="translate(-24.12 -45.25)"/></g><g class="cls-1"><path class="cls-3" d="M611.2,161.84c0-53.8-44.81-112.76-100.56-116.32l-3-.17c-79.93-3.72-86,93.77-158.34,104.76s-127.55-44.51-214.08-8.29C57.53,174.34,36.48,357.11,264.83,364.44,447.53,370.3,611.22,322.37,611.2,161.84Z" transform="translate(-24.12 -45.25)"/></g><ellipse class="cls-3" cx="357.87" cy="387.39" rx="183.75" ry="9.48"/><path class="cls-4" d="M249.45,360.86h212a15.92,15.92,0,0,1,15.92,15.92v10.56a0,0,0,0,1,0,0H233.53a0,0,0,0,1,0,0V376.78A15.92,15.92,0,0,1,249.45,360.86Z"/><rect class="cls-4" x="310.57" y="304.11" width="88.39" height="56.74"/><polygon class="cls-3" points="310.57 321.54 398.96 314.46 398.97 304.11 310.58 304.22 310.57 321.54"/><path class="cls-4" d="M568,115V337.57a11.81,11.81,0,0,1-11.81,11.81H193.81A11.81,11.81,0,0,1,182,337.57V115a11.81,11.81,0,0,1,11.81-11.81H556.72l.38,0h0l.28,0,.45.06.3,0,.14,0,.29,0A11.82,11.82,0,0,1,568,115Z" transform="translate(-24.12 -45.25)"/><circle class="cls-3" cx="378.84" cy="333.4" r="8.16" transform="translate(-149.9 283.11) rotate(-40.78)"/><path class="cls-5" d="M558.57,103.47l-.29,0-.14,0-.3,0-.45-.06-.28,0h0l-.38,0H193.81A11.81,11.81,0,0,0,182,115V321.11H568V115A11.82,11.82,0,0,0,558.57,103.47Zm-5.88,197.06a3.21,3.21,0,0,1-3.21,3.21h-349a3.21,3.21,0,0,1-3.21-3.21V121.75a3.21,3.21,0,0,1,3.21-3.21h349a3.21,3.21,0,0,1,3.21,3.21Z" transform="translate(-24.12 -45.25)"/><rect class="cls-3" x="173.19" y="73.29" width="355.38" height="185.2" rx="3.21"/><path class="cls-4" d="M552.69,121.75v16.88H197.31V121.75a3.21,3.21,0,0,1,3.21-3.21h349A3.21,3.21,0,0,1,552.69,121.75Z" transform="translate(-24.12 -45.25)"/><path class="cls-6" d="M525.16,128.31a2.73,2.73,0,1,1-2.72-2.72A2.72,2.72,0,0,1,525.16,128.31Z" transform="translate(-24.12 -45.25)"/><path class="cls-7" d="M534,128.31a2.73,2.73,0,1,1-2.73-2.72A2.73,2.73,0,0,1,534,128.31Z" transform="translate(-24.12 -45.25)"/><rect class="cls-8" x="204.22" y="80.18" width="282.72" height="5.77" rx="2.43"/><path d="M210.14,128.31V131a.49.49,0,0,1-.73.42l-2.32-1.33-2.31-1.34a.49.49,0,0,1,0-.85l2.31-1.34,2.32-1.33a.48.48,0,0,1,.73.42Z" transform="translate(-24.12 -45.25)"/><path d="M214.21,128.31V131a.49.49,0,0,0,.73.42l2.32-1.33,2.31-1.34a.49.49,0,0,0,0-.85l-2.31-1.34-2.32-1.33a.48.48,0,0,0-.73.42Z" transform="translate(-24.12 -45.25)"/><rect class="cls-5" x="536.67" y="127.45" width="6.55" height="1.54" rx="0.65" transform="translate(43.35 374.08) rotate(-45)"/><rect class="cls-5" x="539.17" y="124.94" width="1.54" height="6.55" rx="0.65" transform="translate(43.38 374.12) rotate(-45)"/><rect class="cls-4" x="213.36" y="97.45" width="274.09" height="153.85" rx="6.42"/><rect class="cls-3" x="222.51" y="171.73" width="69.48" height="39" rx="3.01"/><rect class="cls-3" x="407.49" y="106.61" width="69.48" height="39" rx="3.01"/><rect class="cls-3" x="222.41" y="139.73" width="69.58" height="3.34" rx="1.6"/><rect class="cls-3" x="222.41" y="125.61" width="69.58" height="3.34" rx="1.6"/><rect class="cls-3" x="222.41" y="153.86" width="69.58" height="3.34" rx="1.6"/><rect class="cls-3" x="407.49" y="172.83" width="69.48" height="3.34" rx="1.6"/><rect class="cls-3" x="407.49" y="158.7" width="69.48" height="3.34" rx="1.6"/><rect class="cls-3" x="407.49" y="186.95" width="69.48" height="3.34" rx="1.6"/><path class="cls-5" d="M237.48,272.66H511.57v22.47a1.43,1.43,0,0,1-1.43,1.42H238.9a1.43,1.43,0,0,1-1.42-1.42Z" transform="translate(-24.12 -45.25)"/><path class="cls-4" d="M491.92,281.51v-2h2.53v-1.81H491a.91.91,0,0,0-.9.9v2.93Z" transform="translate(-24.12 -45.25)"/><path class="cls-4" d="M491.92,285.12h-1.81v3.08a.91.91,0,0,0,.9.9h3.44v-1.8h-2.53Z" transform="translate(-24.12 -45.25)"/><path class="cls-4" d="M499.73,281.51h1.8v-2.93a.91.91,0,0,0-.9-.9h-3.31v1.81h2.41Z" transform="translate(-24.12 -45.25)"/><path class="cls-4" d="M499.73,285.12v2.18h-2.41v1.8h3.31a.91.91,0,0,0,.9-.9v-3.08Z" transform="translate(-24.12 -45.25)"/><rect class="cls-3" x="213.36" y="222.91" width="274.09" height="4.49"/><path class="cls-5" d="M257.39,147.39h3.09v6.77h4.15v2.4h-7.24Z" transform="translate(-24.12 -45.25)"/><path class="cls-5" d="M265.48,147.39h3.09v9.17h-3.09Z" transform="translate(-24.12 -45.25)"/><path class="cls-5" d="M279.86,147.39,276,156.56h-3l-3.87-9.17h3.32l2.19,5.36,2.24-5.36Z" transform="translate(-24.12 -45.25)"/><path class="cls-5" d="M287.79,154.23v2.33h-7.63v-9.17h7.46v2.33H283.2v1.08h3.88V153H283.2v1.21Z" transform="translate(-24.12 -45.25)"/><path class="cls-6" d="M252.3,151.9a3.77,3.77,0,1,1-3.77-3.77A3.77,3.77,0,0,1,252.3,151.9Z" transform="translate(-24.12 -45.25)"/><path class="cls-6" d="M475.85,252.93a3.31,3.31,0,1,1-3.31-3.31A3.31,3.31,0,0,1,475.85,252.93Z" transform="translate(-24.12 -45.25)"/><path class="cls-6" d="M478.73,261.31H466.35a6.4,6.4,0,0,1,6.1-3.93h.18A6.41,6.41,0,0,1,478.73,261.31Z" transform="translate(-24.12 -45.25)"/><path class="cls-5" d="M490.16,250.93V253L486.82,261h-3.7l3.18-7.4h-1.93V255h-2.8v-4.08Z" transform="translate(-24.12 -45.25)"/><path class="cls-5" d="M499,258.33V261h-8v-2.07l3.63-3.36c.69-.64.79-1,.79-1.37,0-.49-.33-.79-1-.79a1.64,1.64,0,0,0-1.47.93L490.33,253a4.58,4.58,0,0,1,4.34-2.32c2.38,0,4.05,1.23,4.05,3.13,0,1-.26,1.88-1.72,3.2l-1.43,1.3Z" transform="translate(-24.12 -45.25)"/><path class="cls-9" d="M234.47,256.2c-1.38,4.21-1.38,4.95-1.38,4.21l0-120.38c0-.74,0-.62,0-87.79H503.81l0,204Z" transform="translate(-24.12 -45.25)"/><path class="cls-10" d="M435.54,167.4s2.47,7.94,8.66,8.57c5,.49,8.91-4.79,10.23-6.83.31-.49.48-.8.48-.8a8.16,8.16,0,0,0,.9-.09c1.26-.2,3.47-.77,4.13-2.44.94-2.38-3.82-3.26-3.82-3.26s2-2.41,1.25-3.84-4-1.28-4-1.28,3.06-2.66,1.67-4.41c-2.1-2.64-5.15,1-5.4,1.22.19-.28,8-12.22,5.54-12.7-2.18-.42-9.41,9.22-11.34,11.86-.31.41-.48.66-.48.66s-.15-.09-.41-.21c-1.23-.6-5-2.14-6.92,0C433.71,156.46,435.54,167.4,435.54,167.4Z" transform="translate(-24.12 -45.25)"/><path class="cls-11" d="M450.8,164a5.06,5.06,0,0,0-1.9,2.56,1.53,1.53,0,0,0,.39,1.43,2.93,2.93,0,0,0,1.13.61,15.8,15.8,0,0,0,4,.53c.32-.5.48-.8.48-.8a8.16,8.16,0,0,0,.9-.09.44.44,0,0,0-.26-.07c-1.78,0-4.88-.16-5.58-.86a.56.56,0,0,1-.13-.55c.2-1,1.74-2.4,3.17-3a.48.48,0,0,0-.25-.92c-1.18.19-4.43.44-5.46-.59-.15-.15-.13-.24-.11-.29a1.54,1.54,0,0,1,.62-.76,11.7,11.7,0,0,1,2.67-1.45.52.52,0,0,0,.23-.18.49.49,0,0,0,0-.44.48.48,0,0,0-.62-.28,13.83,13.83,0,0,0-2.69,1.42,4.25,4.25,0,0,0-.91.88,1.79,1.79,0,0,0-.29.61,1.26,1.26,0,0,0,.38,1.17C447.53,163.87,449.34,164,450.8,164Z" transform="translate(-24.12 -45.25)"/><path class="cls-11" d="M446.15,157a.48.48,0,0,1,.12.53,3,3,0,0,0-.31,1.51.53.53,0,0,0,.3.47,2,2,0,0,0,.84.11,14.39,14.39,0,0,0,3.26-.71.43.43,0,0,1-.22.18,12.29,12.29,0,0,0-2.67,1.45c-.11,0-.23,0-.34,0a3.91,3.91,0,0,1-.94-.07,1.61,1.61,0,0,1-.33-.12,1.48,1.48,0,0,1-.85-1.2,4,4,0,0,1,.37-2,.47.47,0,0,1,.76-.16Z" transform="translate(-24.12 -45.25)"/><path class="cls-11" d="M437.58,158.64A15.66,15.66,0,0,0,441,160.3a5.32,5.32,0,0,0,2.84.27,2.35,2.35,0,0,0,1.58-1.21c1.23-2.23-.43-4.69-1.53-6-.31.41-.48.66-.48.66s-.15-.09-.41-.21c.94,1,2.58,3.24,1.58,5.05a1.44,1.44,0,0,1-1,.74c-1.65.41-4.53-1.16-5.49-1.8a.48.48,0,1,0-.53.8Z" transform="translate(-24.12 -45.25)"/><path class="cls-11" d="M442.49,171.52a.48.48,0,0,0,.5-.78,4.31,4.31,0,0,1-1.22-3.45c.37-3.16,4.15-5.83,4.18-5.86a.48.48,0,1,0-.55-.79c-.17.12-4.17,3-4.58,6.54a5.18,5.18,0,0,0,1.46,4.2A.49.49,0,0,0,442.49,171.52Z" transform="translate(-24.12 -45.25)"/><path class="cls-7" d="M382.68,132.15l4.87,12.32q1.09,3.09,2.22,6.17c.75,2.05,1.49,4.09,2.25,6.12s1.52,4.05,2.29,6,1.57,4,2.37,5.87,1.61,3.78,2.42,5.45c.4.82.81,1.6,1.15,2.2l.23.4.09.16,0,.07a1.28,1.28,0,0,1,0,.17c0,.09,0,.13,0,.21s.14.18.4.29a7.41,7.41,0,0,0,3,.33,24.46,24.46,0,0,0,4.74-.77,53.6,53.6,0,0,0,5.34-1.7,96.79,96.79,0,0,0,11.05-5.09c3.69-1.94,6.39-3.52,10-5.76a16.07,16.07,0,0,0,10.37,11.67,130.5,130.5,0,0,1-11,8.94,100.08,100.08,0,0,1-12.4,7.76,65,65,0,0,1-7.09,3.22,44.64,44.64,0,0,1-8.27,2.3,30.55,30.55,0,0,1-4.84.47,26.35,26.35,0,0,1-5.47-.46,22.81,22.81,0,0,1-5.87-2,21.94,21.94,0,0,1-5.37-3.72,22.44,22.44,0,0,1-2.17-2.32l-.47-.6-.39-.52-.36-.51c-.11-.16-.24-.33-.34-.49-.86-1.27-1.56-2.43-2.22-3.57-1.31-2.26-2.43-4.4-3.5-6.54s-2-4.27-3-6.38-1.9-4.22-2.79-6.34-1.77-4.22-2.62-6.34-1.68-4.23-2.5-6.35-1.6-4.25-2.37-6.38l-1.15-3.21-.56-1.62c-.19-.54-.36-1.07-.56-1.65Z" transform="translate(-24.12 -45.25)"/><path class="cls-12" d="M395.94,183.4a.6.6,0,0,0,.49-.24,26.85,26.85,0,0,1,4.42-4.6.62.62,0,0,0,.14-.86.61.61,0,0,0-.86-.14,27.37,27.37,0,0,0-4.68,4.86.62.62,0,0,0,.12.86A.63.63,0,0,0,395.94,183.4Z" transform="translate(-24.12 -45.25)"/><path class="cls-12" d="M400.12,184l.14,0a.6.6,0,0,0,.46-.73,11.48,11.48,0,0,1,0-4.62.61.61,0,0,0-.42-.76.62.62,0,0,0-.76.43,12.49,12.49,0,0,0,0,5.22A.63.63,0,0,0,400.12,184Z" transform="translate(-24.12 -45.25)"/><path class="cls-5" d="M394.41,249.68c-11.37,6.55-38.88,9.93-56.83,2.8-6.58-2.62-7.73-4.22-7.24-16,0-.44,0-.88.07-1.32,0-.93.1-1.86.17-2.78,0-.44.07-.89.11-1.33.13-1.65.29-3.27.46-4.82l.15-1.27a71.16,71.16,0,0,1,1.67-9l.32-1.23c.64-2.36,1.15-3.78,1.15-3.78a74.21,74.21,0,0,0,8.87.86l1.27.05c15.52.41,31.32-3.11,38.63-5l1.23-.33c1.9-.51,3-.84,3-.84s.67,1.17,1.61,3.11c.17.36.36.74.55,1.15a64.43,64.43,0,0,1,4.47,12.68c0,.06,0,.12,0,.18q.14.61.27,1.26a1.84,1.84,0,0,1,.05.25c.75,3.51,1.42,7.2,1.88,10.72h0c.07.45.12.9.17,1.35C397.36,244.09,397.49,247.91,394.41,249.68Z" transform="translate(-24.12 -45.25)"/><path class="cls-13" d="M389.58,209.92c-.88.39-1.82.79-2.83,1.2l-1.2.47a84.85,84.85,0,0,1-21.81,5.49c-.32,0-.63.07-.95.09a118.83,118.83,0,0,1-21.46-.22l-1.33-.13c-2.66-.27-5.05-.58-7-.88l.32-1.23c2,.3,4.49.62,7.23.89l1.31.13a115.94,115.94,0,0,0,21.78.09,84,84,0,0,0,21.32-5.35h0l1.18-.47q1.56-.63,2.91-1.23C389.2,209.13,389.39,209.51,389.58,209.92Z" transform="translate(-24.12 -45.25)"/><path class="cls-5" d="M407.25,303.74c-1.66-25.66-5.43-49.45-11-68.73l-30.51,14.21c1,23.35,5.65,39.53,11,54.52Z" transform="translate(-24.12 -45.25)"/><path class="cls-5" d="M359.72,303.74c1.88-18.23,4-40.61,4.33-49.29l-33.71-18s-5.93,20.5-2,67.3Z" transform="translate(-24.12 -45.25)"/><path class="cls-5" d="M338.21,129.72l12.17,8c-1.51-2.11,15.5-20.39,17.65-23.44,2.51-3.56,3.81-12.32,4.45-19.28a22.09,22.09,0,0,0-23-24.15l-.61,0c-20.44,1.31-21.95,18.82-20,29.43C330.55,110,344.58,123.56,338.21,129.72Z" transform="translate(-24.12 -45.25)"/><path class="cls-4" d="M336,205.66l3.92,16.45c9.8-.78,21.39-2.2,30.12-6.71,0,0,11.63,3.91,17.53,2.08l-4.32-11.82Z" transform="translate(-24.12 -45.25)"/><path class="cls-7" d="M393.53,217.84c-11.3-.08-18.08-1.54-24.24-6.59-11.56,12-40.11,12.47-40.11,12.47C332,214.5,333,198.19,333,198.19c-.23-1.69-.35-3.45-.53-5.24a34.54,34.54,0,0,0-.88-5.37c-2.82-8.13-6.11-14-9-22.36-.19-.55-.39-1.09-.58-1.64l-.39-1.06c-1-2.63-2-5.25-3.08-7.77-4.73-11-5.49-23.43,5.88-27.22l2.43-.79c5.38-1.7,9.86-2.82,11.11-3.12l.34-.08,23.87,2,2.27.19c3.33.37,6.87.28,9.1.77,2,.43,3.16.32,5.16.91,4.7,1.4,4.57,7.72,6,15.58,0,.13,0,.27.07.41l0,.13c.26,1.34.56,2.66.91,4,.38,1.46.81,2.9,1.27,4.31,2.75,8.63,6.07,12.59,5.5,18-.52,4.91-5.53,11.62-6.86,13.05l-.49.51a.25.25,0,0,0,0,.08c0,.19,0,.4.07.61.1.83.24,1.82.43,2.93.41,4.16,1,7.92,1.66,11.27q.54,2.72,1.14,5.07A67.1,67.1,0,0,0,393.53,217.84Z" transform="translate(-24.12 -45.25)"/><path class="cls-12" d="M388.4,203.34c-3.23,1.71-5.84,2.85-5.84,2.85l-2.41-4.54a47.67,47.67,0,0,0,7.11-3.38A15.47,15.47,0,0,1,388.4,203.34Z" transform="translate(-24.12 -45.25)"/><path class="cls-12" d="M336.32,199.08s10.86,4.61,18.9,5.39l-1.23,5s-13.17-2.18-18.44-5.93Z" transform="translate(-24.12 -45.25)"/><path class="cls-12" d="M387,182.15a.6.6,0,0,0,.45-.19c.29-.31,7.19-7.67,4.78-14.38-.66-1.87-1.44-3.75-2.26-5.75-2.5-6.05-5.33-12.92-6.06-21.82a.61.61,0,0,0-1.22.1c.74,9.1,3.61,16,6.14,22.19.82,2,1.59,3.85,2.25,5.69,2.14,6-4.46,13-4.52,13.12a.61.61,0,0,0,0,.87A.63.63,0,0,0,387,182.15Z" transform="translate(-24.12 -45.25)"/><path class="cls-12" d="M367,155.92a1.34,1.34,0,1,1-1.34-1.34A1.34,1.34,0,0,1,367,155.92Z" transform="translate(-24.12 -45.25)"/><path class="cls-12" d="M369,167.78a1.34,1.34,0,1,1-1.34-1.33A1.34,1.34,0,0,1,369,167.78Z" transform="translate(-24.12 -45.25)"/><path class="cls-12" d="M370.17,179.85a1.34,1.34,0,1,1-1.34-1.34A1.34,1.34,0,0,1,370.17,179.85Z" transform="translate(-24.12 -45.25)"/><path class="cls-12" d="M370.69,192.25a1.34,1.34,0,1,1-1.34-1.34A1.34,1.34,0,0,1,370.69,192.25Z" transform="translate(-24.12 -45.25)"/><path class="cls-12" d="M370.63,205.16a1.34,1.34,0,1,1-1.34-1.34A1.34,1.34,0,0,1,370.63,205.16Z" transform="translate(-24.12 -45.25)"/><path class="cls-12" d="M359.36,125.49a30.87,30.87,0,0,1,8.81.5l-.39,13.61-3.1.67,2.61,2.57L364.16,152S359.89,136.77,359.36,125.49Z" transform="translate(-24.12 -45.25)"/><path class="cls-12" d="M338.23,123.54l-9.48,2.59,11.13,14.81,8.35-.67-2.93,6.39L364.16,152s-21.84-20.74-23.59-28.23Z" transform="translate(-24.12 -45.25)"/><path class="cls-4" d="M339.88,124.65s5.45,11.6,24.28,27.32a149.27,149.27,0,0,0-4.8-25.63S348.28,130.2,339.88,124.65Z" transform="translate(-24.12 -45.25)"/><path class="cls-12" d="M366.79,161.69c-6.2,0-18.86-8.89-19.4-9.27a.52.52,0,0,1-.12-.71.51.51,0,0,1,.71-.12c.13.09,12.93,9.08,18.81,9.08,5.63,0,6.87-6.15,6.89-6.21a.51.51,0,0,1,.59-.41.52.52,0,0,1,.41.6C374.66,154.72,373.25,161.69,366.79,161.69Z" transform="translate(-24.12 -45.25)"/><path class="cls-10" d="M359.36,125.49l.25,3.22c.48,6-3.78,7.69-10,4.51-4.9-2.5-9.06-6.25-9.74-8.57Z" transform="translate(-24.12 -45.25)"/><path class="cls-12" d="M350.47,186.68a.55.55,0,0,0,.48.28.5.5,0,0,0,.27-.07,31.78,31.78,0,0,1,20-3,34.36,34.36,0,0,0,13.95.16c0-.22-.06-.43-.08-.62v-.08l.48-.5a32.88,32.88,0,0,1-14.14,0,32.24,32.24,0,0,0-20.75,3.09A.55.55,0,0,0,350.47,186.68Z" transform="translate(-24.12 -45.25)"/><path class="cls-5" d="M369.59,85.5s2.75,10.81,1,12.69S366.21,96,366.21,96,367.49,85.93,369.59,85.5Z" transform="translate(-24.12 -45.25)"/><path class="cls-10" d="M359.36,117.07v9.27s-4.89,8-19.48-1.69c2.77-3.09,2.85-9.05,1.73-12.61a20.63,20.63,0,0,0,2.84,1.51l1.16.51C349.26,115.59,354.75,117.43,359.36,117.07Z" transform="translate(-24.12 -45.25)"/><path class="cls-5" d="M359.36,117.07l.45,13.56c1.42,8.82-28.25,7-18.2-18.59.36.16,3.59,1.84,4,2C349.26,115.59,354.75,117.43,359.36,117.07Z" transform="translate(-24.12 -45.25)"/><path class="cls-10" d="M367.29,114c-7.79,8.06-25.08-1.56-25.64-1.87h0c-.16-.72-.31-1.44-.44-2.15a56.79,56.79,0,0,1-.56-16.85,12.76,12.76,0,0,1,8.28-12.69c5.44-2,10.32.41,13.25,1.31,4.42,1.37,7.2,7.08,7.23,15.23C369.43,107,369.23,112,367.29,114Z" transform="translate(-24.12 -45.25)"/><path class="cls-5" d="M359.42,75.76c-9.09-2.07-19.79,2-18.82,11.42-4.22,3.27-1.68,7.44-1.15,10.82.81,5.15,1.75,15,1.75,15,.92-3.17,1.24-15.08,3.25-18.32a8.22,8.22,0,0,0,1-3.37c-.06-1.82,1.88-2.61,3.7-2.6h1.51c3.72,0,7.36-.1,10.86-.33l1.38-.1q2.83-.23,5.54-.6S369,77.94,359.42,75.76Z" transform="translate(-24.12 -45.25)"/><path class="cls-11" d="M360.61,109.64a4.41,4.41,0,0,0,1.91-.14.34.34,0,0,0,.21-.42.33.33,0,0,0-.42-.21h0a3.55,3.55,0,0,1-3-.45.32.32,0,0,0-.46.07.34.34,0,0,0,.07.47A3.84,3.84,0,0,0,360.61,109.64Z" transform="translate(-24.12 -45.25)"/><path class="cls-4" d="M365.56,104.43s-5.42,1.89-9.49-.8c0,0,1.43,3.67,4.94,4S365.56,104.43,365.56,104.43Z" transform="translate(-24.12 -45.25)"/><path class="cls-5" d="M356.93,89.6s1.62.16,1.05,1.64-3.81-.15-6.14,2.58C351.84,93.82,350.86,90.27,356.93,89.6Z" transform="translate(-24.12 -45.25)"/><path class="cls-5" d="M364.26,89.6s-1.62.16-1.05,1.64,3.81-.15,6.13,2.58C369.34,93.82,370.33,90.27,364.26,89.6Z" transform="translate(-24.12 -45.25)"/><path class="cls-11" d="M356.05,100.59c0,.75-1.55,1.36-3.47,1.36s-3.47-.61-3.47-1.36,1.55-1.37,3.47-1.37S356.05,99.83,356.05,100.59Z" transform="translate(-24.12 -45.25)"/><path class="cls-11" d="M370.19,101.91a7.63,7.63,0,0,1-.84,0c-1.91,0-3.47-.61-3.47-1.36s1.56-1.37,3.47-1.37c.26,0,.51,0,.76,0Z" transform="translate(-24.12 -45.25)"/><path class="cls-5" d="M356.45,97c0,1-.47,1.87-1.05,1.87s-1-.84-1-1.87.47-1.88,1-1.88S356.45,96,356.45,97Z" transform="translate(-24.12 -45.25)"/><path class="cls-5" d="M366.7,97c0,1-.47,1.87-1.05,1.87s-1-.84-1-1.87.47-1.88,1-1.88S366.7,96,366.7,97Z" transform="translate(-24.12 -45.25)"/><path class="cls-5" d="M362.67,101a3.69,3.69,0,0,0,.87-.09.47.47,0,0,0,.27-.21.45.45,0,0,0,0-.34l-1.58-4.52a.42.42,0,0,0-.8.28l1.4,4a3.36,3.36,0,0,1-1.74-.37.42.42,0,0,0-.58.17.43.43,0,0,0,.17.58A4.25,4.25,0,0,0,362.67,101Z" transform="translate(-24.12 -45.25)"/><path class="cls-12" d="M310.29,188.84s1.36,2.94-.21,9.36a36.82,36.82,0,0,1-4.21,10.44S299.29,198.65,310.29,188.84Z" transform="translate(-24.12 -45.25)"/><path class="cls-10" d="M281.25,182.71c0,.32,0,.64.07,1s.08.63.14,1c0,.15.05.31.08.46l.11.46a15.65,15.65,0,0,0,1.2,3.3,15.22,15.22,0,0,0,.77,1.39c.14.22.27.44.41.64l.43.59a21,21,0,0,0,3.52,3.7,33.12,33.12,0,0,0,3.49,2.53c.57.37,1.14.71,1.71,1s1.12.64,1.68.94c1.12.58,2.22,1.12,3.32,1.62,2.2,1,4.39,1.86,6.56,2.64s4.35,1.45,6.51,2.08,4.34,1.22,6.5,1.75,4.35,1,6.53,1.48a25.83,25.83,0,0,0,3,.35c1.74.14,3.63.23,4.87.44.29-1.8-1.23-3.25-.93-5.05.35-2.1.7-4.21,1.09-6.31l-.87-1.88c-1.32-.31-2.65-.65-4-1l-.12,0q-2.89-.8-5.74-1.72c-1.93-.62-3.85-1.29-5.74-2s-3.72-1.47-5.51-2.27-3.52-1.67-5.13-2.57c-.8-.46-1.59-.92-2.31-1.41-.36-.24-.72-.48-1.05-.73s-.65-.5-.95-.75a12.36,12.36,0,0,1-1.21-1.15,3.76,3.76,0,0,1-.28-.32l0,0,.31-.42.56-.76c.29-.4.57-.8.89-1.2.61-.81,1.21-1.61,1.84-2.42l1.91-2.42c1.3-1.62,2.59-3.24,3.92-4.86l1-1.21,1-1.21,1.41-1.7.6-.72.73-.88,1.29-1.55,2-2.41q2-2.43,4.08-4.84l8.17-9.63,0-.06a9.65,9.65,0,0,0-14.63-12.58l-2.14,2.46-2.1,2.46-2.09,2.47-2.07,2.49q-2.06,2.49-4.1,5l-2,2.52-.26.34L298,153.89c-.68.84-1.34,1.7-2,2.56l-1,1.29-.45.59-.54.71c-1.32,1.73-2.64,3.48-3.94,5.25L288.18,167c-.65.9-1.28,1.84-1.92,2.75-.32.46-.64.94-1,1.42l-.95,1.44-.24.36-.06.09,0,0,0,.08-.19.32-.39.65c-.06.1-.13.22-.19.34l-.18.36c-.12.24-.24.47-.36.72s-.22.52-.32.79l-.16.39c0,.14-.09.28-.14.42s-.18.57-.26.85-.15.6-.21.9-.13.61-.17.93-.08.63-.11.94,0,.65-.05,1v.48C281.23,182.38,281.24,182.55,281.25,182.71Z" transform="translate(-24.12 -45.25)"/><path d="M323.42,194.59a4.26,4.26,0,0,0-3.48-1.13s-4.54,7.69-2.19,14.29a4.48,4.48,0,0,0,3.26.77S318.82,200.58,323.42,194.59Z" transform="translate(-24.12 -45.25)"/><path d="M314.61,201.3a4.59,4.59,0,1,0,4.32-4.83A4.59,4.59,0,0,0,314.61,201.3Z" transform="translate(-24.12 -45.25)"/><path class="cls-4" d="M319.38,204.47a3.43,3.43,0,1,0-3.61-3.23A3.43,3.43,0,0,0,319.38,204.47Z" transform="translate(-24.12 -45.25)"/><path class="cls-11" d="M327.29,209.35c1.74.13,3.63.22,4.86.43.3-1.8-1.22-3.25-.92-5.05.35-2.1.7-4.2,1.08-6.3l-.87-1.88q-2-.48-4-1l-.12,0C326.82,198.49,326,204.75,327.29,209.35Z" transform="translate(-24.12 -45.25)"/><path class="cls-7" d="M331.56,137.67a9.11,9.11,0,0,1-1.84,8.65c-3.87,4.46-11.25,13.08-15.34,18.49-5.71,7.56-12.94,17.05-12.94,17.05a105.46,105.46,0,0,0,8.85,7,18,18,0,0,0-4.42,19.8s-16-8.81-24.14-17.27c-5.92-6.18-4.28-13.9,1.13-21.27,2.74-3.72,23.8-27.73,31.28-36.13a10.35,10.35,0,0,1,11-3A9.81,9.81,0,0,1,331.56,137.67Z" transform="translate(-24.12 -45.25)"/><path class="cls-10" d="M327.65,197.78s.63-3.66,1.58-7.19c.79-2.94,2.39-3.85,2.39-3.85a31.39,31.39,0,0,1,.91,6.85,2.91,2.91,0,0,1,2.5-.5c1.62.33,7.21,1.51,7.28,2.8.16,3-6.83,1.55-6.83,1.55s7.48,1.41,7.3,3.48c-.16,1.67-6.94,2-6.94,2s6.54.06,5.75,2.4c-.83,2.5-6.89.93-6.89.93s4.36,2.09,3.94,3c-.61,1.27-3.19,1.63-7.38.61S327.65,197.78,327.65,197.78Z" transform="translate(-24.12 -45.25)"/><path class="cls-12" d="M319.93,159.42a.61.61,0,0,1-.46-.13.59.59,0,0,1-.07-.82L329.08,147a.58.58,0,1,1,.89.75l-9.68,11.49A.65.65,0,0,1,319.93,159.42Z" transform="translate(-24.12 -45.25)"/><path class="cls-12" d="M330.46,150.9l-3.66.56a.58.58,0,1,1-.18-1.14l3.66-.56a.57.57,0,0,1,.66.48A.58.58,0,0,1,330.46,150.9Z" transform="translate(-24.12 -45.25)"/><path class="cls-12" d="M291.07,184.35a.33.33,0,0,0,.23.14.37.37,0,0,0,.3-.07c2.76-2,7.67-2.27,10.1-2.23l-.28-.32v0l.31-.42H301c-1.53-1.46-5.63-2.88-5.8-2.94a.38.38,0,0,0-.48.23.37.37,0,0,0,.23.48,25.7,25.7,0,0,1,4.88,2.26c-2.68.12-6.34.63-8.68,2.37A.37.37,0,0,0,291.07,184.35Z" transform="translate(-24.12 -45.25)"/><path class="cls-5" d="M338.21,119.63s-4.09,20.64,11.55,31.84,15.88,11.62,15.88,11.62-2.91-21.32-11.27-28.82S338.21,119.63,338.21,119.63Z" transform="translate(-24.12 -45.25)"/><path class="cls-5" d="M359.65,124.23s14,20.33,4.12,30.35,0,.48,0,.48-11.65-11-10.15-19.82S359.65,124.23,359.65,124.23Z" transform="translate(-24.12 -45.25)"/><ellipse class="cls-3" cx="134.94" cy="410.66" rx="127.36" ry="7.77"/><path class="cls-10" d="M177.65,213l.16.75.12.61.21,1.15c.13.75.25,1.48.36,2.21.21,1.46.39,2.89.55,4.32q.47,4.29.67,8.53t.14,8.49q-.06,4.25-.35,8.48c-.2,2.82-.49,5.63-.85,8.44-.2,1.41-.37,2.81-.61,4.21-.11.7-.22,1.4-.34,2.1l-.39,2.09c-.12.7-.28,1.39-.42,2.09s-.28,1.39-.45,2.08c-.32,1.38-.63,2.77-1,4.14-.18.69-.35,1.38-.54,2.07l-.58,2.05-.15.52-.07.25-.16.53c-.14.49-.3.91-.46,1.34s-.34.82-.51,1.17-.34.71-.52,1l-.27.48-.26.45-.27.44-.27.4c-.17.28-.35.52-.52.77a31.53,31.53,0,0,1-2.06,2.55c-.67.75-1.33,1.41-2,2-1.29,1.24-2.54,2.29-3.77,3.28-2.47,1.95-4.88,3.61-7.28,5.15-4.81,3.07-9.57,5.72-14.38,8.21s-9.61,4.79-14.45,7q-3.64,1.64-7.3,3.2L116,317.21l-1.86.76-1.91.76-8.38-18.94,1.62-.83,1.67-.87,3.36-1.75c2.23-1.17,4.45-2.37,6.66-3.58,4.42-2.42,8.79-4.9,13-7.44,2.12-1.28,4.21-2.58,6.25-3.89s4-2.66,5.91-4,3.66-2.74,5.19-4.08c.76-.67,1.45-1.33,2-1.91a8.18,8.18,0,0,0,1-1.3s0,0,0,0h0l0,0,0,0,0,.05a.72.72,0,0,0-.1.18c0,.06-.09.17-.13.27a4,4,0,0,0-.16.43l0,.12s0,0,0,0v-.05l.05-.22.1-.42.39-1.7c.13-.57.23-1.15.35-1.72.25-1.14.44-2.29.65-3.44.11-.57.19-1.15.28-1.73s.19-1.15.27-1.73c.33-2.31.59-4.64.81-7s.33-4.68.43-7,.1-4.7.06-7-.13-4.69-.29-7-.36-4.66-.64-6.94c-.14-1.14-.3-2.27-.48-3.37-.08-.56-.17-1.1-.26-1.63l-.14-.75-.1-.54Z" transform="translate(-24.12 -45.25)"/><path class="cls-14" d="M149.78,219.49,145,255.6c7.11,4,13.85,6.83,20,8Z" transform="translate(-24.12 -45.25)"/><path class="cls-11" d="M159.89,275.3a.64.64,0,0,1-.3-.08,64.27,64.27,0,0,0-8.84-3.72.63.63,0,1,1,.4-1.2,64.1,64.1,0,0,1,9,3.81.62.62,0,0,1,.26.85A.63.63,0,0,1,159.89,275.3Z" transform="translate(-24.12 -45.25)"/><path class="cls-11" d="M151.3,271.65a.63.63,0,0,1-.07-1.26c2.63-.29,6.08-.31,6.22-.31h0a.64.64,0,0,1,.64.63.64.64,0,0,1-.63.64s-3.53,0-6.09.3Z" transform="translate(-24.12 -45.25)"/><polygon class="cls-10" points="58.71 374.61 52.14 385.33 39.64 379.8 45.31 368.27 58.71 374.61"/><path class="cls-15" d="M24.14,431.14l47.31,20.94a7.11,7.11,0,0,0,1.79-2.35c2.06-3.87,3.62-10.82,4.77-15.13.13-.5.26-1,.39-1.39A14.23,14.23,0,0,1,79,431.5c1.45-3.28-1.71-4-1.71-4-6.86,2.58-9.17-6.86-13.35-5.95,0,0-1.8.37-7,2.09s-12.63,1.12-19.07,1c-8.32-.18-11.61,1.87-12.89,3.72A4,4,0,0,0,24.14,431.14Z" transform="translate(-24.12 -45.25)"/><path class="cls-16" d="M24.14,431.14l47.31,20.94a7.11,7.11,0,0,0,1.79-2.35L24.92,428.34A4,4,0,0,0,24.14,431.14Z" transform="translate(-24.12 -45.25)"/><path class="cls-16" d="M66.62,449.94l1.41.63a11.35,11.35,0,0,1,.81-8.7A14.6,14.6,0,0,1,78,434.6c.13-.5.26-1,.39-1.39a15.85,15.85,0,0,0-10.66,8.1A12.57,12.57,0,0,0,66.62,449.94Z" transform="translate(-24.12 -45.25)"/><path class="cls-4" d="M56.44,426.77a.85.85,0,0,0,.87-1.45l-2.63-2a.85.85,0,0,0-1,1.35l2.63,2A.59.59,0,0,0,56.44,426.77Z" transform="translate(-24.12 -45.25)"/><path class="cls-4" d="M60.47,425.61a.85.85,0,0,0,.87-1.45l-2.63-2a.86.86,0,1,0-1.05,1.35l2.63,2A.81.81,0,0,0,60.47,425.61Z" transform="translate(-24.12 -45.25)"/><path class="cls-4" d="M52.73,427.18a.85.85,0,0,0,.87-1.45l-2.63-2a.86.86,0,1,0-1,1.35l2.63,2A.81.81,0,0,0,52.73,427.18Z" transform="translate(-24.12 -45.25)"/><path class="cls-4" d="M49,427.53a.86.86,0,0,0,.87-1.46l-2.63-2a.86.86,0,0,0-1.05,1.35l2.63,2Z" transform="translate(-24.12 -45.25)"/><path class="cls-4" d="M45.14,427.63a.86.86,0,0,0,1-.26.84.84,0,0,0-.15-1.19l-2.63-2.05a.85.85,0,1,0-1,1.35l2.63,2A.62.62,0,0,0,45.14,427.63Z" transform="translate(-24.12 -45.25)"/><path class="cls-4" d="M41.07,427.38a.85.85,0,0,0,.87-1.45l-2.63-2a.86.86,0,0,0-1.2.15.87.87,0,0,0,.15,1.2l2.64,2A.59.59,0,0,0,41.07,427.38Z" transform="translate(-24.12 -45.25)"/><path class="cls-5" d="M112.2,316.39c4.39-4.32,39-14,62-7.56A29.89,29.89,0,0,1,172,338.64c-30.24,4.94-47.11,15.11-47.11,15.11s-10.72,24.77-17.09,33.86-21,38-21,38l-22-9.4S100.25,328.16,112.2,316.39Z" transform="translate(-24.12 -45.25)"/><path class="cls-13" d="M89.16,420.13a.69.69,0,0,1-.24-.05l-21.54-8.95a.64.64,0,0,1-.34-.83.62.62,0,0,1,.83-.34l21.53,9a.63.63,0,0,1,.35.83A.65.65,0,0,1,89.16,420.13Z" transform="translate(-24.12 -45.25)"/><path class="cls-13" d="M85.54,418.32a.59.59,0,0,1-.23-.05.63.63,0,0,1-.36-.82c0-.11,4.55-11.36,15.06-27.31s21.36-42.62,21.47-42.89a.64.64,0,0,1,1.18.47c-.11.27-11.08,27.17-21.59,43.12s-14.9,27-14.94,27.08A.64.64,0,0,1,85.54,418.32Z" transform="translate(-24.12 -45.25)"/><polygon class="cls-10" points="114.26 376.5 112.59 388.96 98.92 388.96 99.44 376.13 114.26 376.5"/><path class="cls-15" d="M89.28,455.82H141a7.2,7.2,0,0,0,.69-2.88c.32-4.37-1.08-11.36-1.76-15.76-.08-.51-.15-1-.21-1.43a14.19,14.19,0,0,1-.15-1.8c0-3.59-3.18-3-3.18-3-5.24,5.14-11.17-2.56-14.63,0,0,0-1.49,1.07-5.6,4.77s-11.09,6.13-17,8.62c-7.67,3.21-9.85,6.42-10.28,8.62A4.08,4.08,0,0,0,89.28,455.82Z" transform="translate(-24.12 -45.25)"/><path class="cls-16" d="M89.28,455.82H141a7.2,7.2,0,0,0,.69-2.88H88.85A4.08,4.08,0,0,0,89.28,455.82Z" transform="translate(-24.12 -45.25)"/><path class="cls-16" d="M135.74,455.82h1.53a11.36,11.36,0,0,1-2.78-8.29,14.6,14.6,0,0,1,5.45-10.35c-.08-.51-.15-1-.21-1.43a15.85,15.85,0,0,0-6.47,11.72A12.57,12.57,0,0,0,135.74,455.82Z" transform="translate(-24.12 -45.25)"/><path class="cls-4" d="M117.05,438.75a.85.85,0,0,0,.2-1.68l-3.23-.8a.85.85,0,1,0-.41,1.65l3.23.81Z" transform="translate(-24.12 -45.25)"/><path class="cls-4" d="M120.26,436.06a.85.85,0,0,0,.21-1.68l-3.24-.8a.84.84,0,0,0-1,.62.85.85,0,0,0,.62,1l3.23.8A.76.76,0,0,0,120.26,436.06Z" transform="translate(-24.12 -45.25)"/><path class="cls-4" d="M113.82,440.63A.85.85,0,0,0,114,439l-3.23-.8a.85.85,0,0,0-.41,1.65l3.23.8Z" transform="translate(-24.12 -45.25)"/><path class="cls-4" d="M110.59,442.44a.85.85,0,0,0,.2-1.68l-3.23-.81a.85.85,0,0,0-.41,1.66l3.23.8Z" transform="translate(-24.12 -45.25)"/><path class="cls-4" d="M107.06,444.11a.86.86,0,0,0,.83-.65.85.85,0,0,0-.62-1l-3.24-.81a.85.85,0,0,0-.41,1.66l3.24.8A.64.64,0,0,0,107.06,444.11Z" transform="translate(-24.12 -45.25)"/><path class="cls-4" d="M103.24,445.53a.85.85,0,0,0,.2-1.68l-3.23-.8a.84.84,0,0,0-1,.62.85.85,0,0,0,.62,1l3.23.8Z" transform="translate(-24.12 -45.25)"/><path class="cls-6" d="M242,318.64c0,.21-.05.41-.08.6s-.21.16-.31.24a72.34,72.34,0,0,1-27,12.59l-1,.24c-1.65.37-3.3.7-4.94,1-2.23.37-4.46.66-6.68.85-2,.17-3.9.27-5.82.31a71.62,71.62,0,0,1-22.77-3.05l-.76-.24a44.93,44.93,0,0,1-5-2l-.71-.33c-1-.48-1.9-1-2.78-1.52.13-3.19.17-7,.14-11.09,0-.34,0-.68,0-1-.05-5.68-.23-11.81-.45-17.41,0-.27,0-.53,0-.79-.12-2.93-.26-5.71-.38-8.19,0-.26,0-.53-.05-.78-.11-2.09-.22-4-.32-5.48,0-.39,0-.78-.08-1.16l-.06-.89h0c-.08-1.08-.17-2.13-.26-3.17-.14-1.66-.3-3.27-.47-4.83-.2-1.79-.41-3.52-.63-5.2s-.5-3.53-.77-5.21-.6-3.51-.91-5.16c-1.11-5.83-2.36-10.82-3.61-15.14-.09-.29-.18-.58-.26-.87-.51-1.72-1-3.31-1.51-4.81-.11-.33-.22-.65-.32-1-2.78-8.25-5.08-13.23-5.12-16.57-.08-6.95,5-9.18,10.3-12l.75-.4c.89-.48,1.78-1,2.65-1.54a12.66,12.66,0,0,0,1.08-.72c.25-.17.49-.35.72-.52a15.74,15.74,0,0,0,5.14-6.53l20-4.22a28.15,28.15,0,0,0,5.13,1.85l.94.24c.37.09.77.18,1.18.25.25.06.51.1.78.15l.62.11a38.13,38.13,0,0,0,6.65.44l.77,0,.54,0a13.72,13.72,0,0,1,4.88.63h0c.3.1.6.2.89.32,6.5,2.6,11.62,10.38,14.94,22.33.92,3.32,1.83,6.55,2.71,9.72l.28,1c.2.69.38,1.38.57,2.07h0c.07.25.13.5.2.75.68,2.46,1.34,4.87,2,7.26h0c.06.25.13.51.2.76h0c0,.14.08.27.11.4l.36,1.4a226.46,226.46,0,0,1,5.26,25.1c.25,1.72.47,3.46.66,5.2,0,.42.09.89.14,1.42,0,.09,0,.19,0,.29s0,.36.05.55l0,.28c.32,3.15.74,7.52,1.14,12.32,0,.25,0,.51.07.77C241.86,299.46,242.69,312.78,242,318.64Z" transform="translate(-24.12 -45.25)"/><path class="cls-14" d="M181.07,208.66c8-1.69,12.32-11.7,12.51-12.13a.58.58,0,0,0-1.06-.45c0,.11-4.43,10.29-12.15,11.54s-10.61-4.35-10.73-4.59a.57.57,0,0,0-.77-.24.58.58,0,0,0-.25.77,11.25,11.25,0,0,0,11.94,5.19Z" transform="translate(-24.12 -45.25)"/><path class="cls-14" d="M189.18,315.1c7.53-1.59,15.3-5.45,23.06-11.52A100.74,100.74,0,0,0,230,285.49a.58.58,0,0,0-.13-.8.58.58,0,0,0-.8.13,99.59,99.59,0,0,1-17.52,17.88c-9.67,7.54-24.44,15.5-40,10.54a.57.57,0,0,0-.35,1.09A34.77,34.77,0,0,0,189.18,315.1Z" transform="translate(-24.12 -45.25)"/><path class="cls-14" d="M184.68,309.36h0c11.71-2.67,18-20.35,18.27-21.1a.57.57,0,0,0-.35-.73.56.56,0,0,0-.73.35c-.06.18-6.35,17.83-17.44,20.36a.57.57,0,0,0,.24,1.12Z" transform="translate(-24.12 -45.25)"/><path class="cls-14" d="M163.05,281.4a17.56,17.56,0,0,0,3.9-3.65c2.61-3.4,3-6.88,1-9.8l-1.1-1.61c-4-5.88-4.45-6.49-4.1-16.16.11-3-.74-5.44-2.54-7.11a9.66,9.66,0,0,0-4.11-2.15c.09.29.17.58.26.87a8.53,8.53,0,0,1,3.33,1.85,8.05,8.05,0,0,1,2.3,6.51c-.36,9.92.16,10.68,4.23,16.62l1.1,1.61c2.4,3.53.43,7.1-1,8.91A16.2,16.2,0,0,1,163,280.5h0C163,280.8,163,281.1,163.05,281.4Z" transform="translate(-24.12 -45.25)"/><path class="cls-14" d="M239.72,275.17a15.07,15.07,0,0,1-4.51,1.79,10.1,10.1,0,0,1-9.43-2.54,7.64,7.64,0,0,1-.51-10.61c3-3.41,1.7-5.23.08-7.52s-3.59-5.08-1.52-10a10,10,0,0,1,5.44-5.78,10.26,10.26,0,0,1,3.6-.72c.06.25.13.51.2.76a9.75,9.75,0,0,0-3.52.67,9.3,9.3,0,0,0-5,5.37c-1.9,4.55-.2,7,1.45,9.29s3.25,4.6-.13,8.46a6.81,6.81,0,0,0,.47,9.57c2.81,2.83,7.79,3.8,13.32.46,0,.18,0,.36.05.55Z" transform="translate(-24.12 -45.25)"/><path class="cls-14" d="M187.48,278.05a8.73,8.73,0,0,0,9.94,3.79,17.18,17.18,0,0,0,1.8-.65c4.91-2.1,10.57-7.05,12.74-12.81a14.29,14.29,0,0,0-1.49-13.14c-3.92-6.14-6.19-11.85-6.57-16.49a6.05,6.05,0,0,0-11.39-2.32l-.21.39c-3.3,6.44-1.33,11.1.41,15.21,1.83,4.29,3.4,8-1.58,12.83C186.6,269.25,185.24,274.18,187.48,278.05Zm4.18-12.64c5.36-5.19,3.6-9.32,1.75-13.68-1.75-4.15-3.57-8.44-.43-14.56l.2-.39a5.21,5.21,0,0,1,5.75-2.72,5.2,5.2,0,0,1,4.21,4.75,28.58,28.58,0,0,0,2.39,8.85,55.68,55.68,0,0,0,4.3,8,13.38,13.38,0,0,1,1.41,12.47c-2.35,6.25-9,11.52-14,13a7.94,7.94,0,0,1-9-3.45C186.09,274.12,187.4,269.54,191.66,265.41Z" transform="translate(-24.12 -45.25)"/><path class="cls-14" d="M154.25,235.14c.11.32.21.64.32,1a12.14,12.14,0,0,0,7.1.61,13.92,13.92,0,0,0,2.57-.82c4.89-2.11,8.21-6.64,8.13-9.38a2.17,2.17,0,0,0-1.45-2.11c-5.26-1.92-7.41-5.39-8.21-13.28a6.85,6.85,0,0,0-2.53-4.95l-.75.4.19.13A6.09,6.09,0,0,1,162,211.2c.84,8.25,3.11,11.89,8.7,13.93a1.39,1.39,0,0,1,1,1.41c.07,2.49-3.19,6.72-7.67,8.66A11.71,11.71,0,0,1,154.25,235.14Z" transform="translate(-24.12 -45.25)"/><path class="cls-14" d="M181.4,236.4a4.16,4.16,0,0,0,4,1.09,5.15,5.15,0,0,0,1.47-.55c2.42-1.34,3.32-4.14,2.41-7.48s.86-5.15,2.61-6.76c1.53-1.41,3.12-2.88,1.87-5.38a4.78,4.78,0,0,0-5.12-2.6,8.27,8.27,0,0,0-6.59,4.62C179.78,223.77,177.63,232.32,181.4,236.4Zm1.3-16.72a7.72,7.72,0,0,1,5.2-4.08,7,7,0,0,1,.78-.11,4,4,0,0,1,4.37,2.17c1,2-.14,3-1.71,4.48-1.74,1.6-3.9,3.59-2.82,7.52.81,3,0,5.45-2,6.61a3.79,3.79,0,0,1-4.52-.38C178.46,232.09,180.55,223.93,182.7,219.68Z" transform="translate(-24.12 -45.25)"/><path class="cls-14" d="M170.15,263.47c.42,2,1.24,3.66,2.64,4.48a8.48,8.48,0,0,0,5.68,1.39,3,3,0,0,0,1.63-.87c1.23-1.33.83-3.72-1.13-6.55-2.26-3.29-.27-5.38,1.83-7.6,1.8-1.89,3.65-3.84,2.61-6.51-.75-1.92-2.47-2.81-5-2.59a9.29,9.29,0,0,0-8.25,8.05A32.32,32.32,0,0,0,170.15,263.47Zm.79-10.1a8.67,8.67,0,0,1,2.2-4.71,8.36,8.36,0,0,1,4.41-2.54c.31-.06.63-.11.95-.14,2.19-.19,3.57.49,4.19,2.11.87,2.22-.73,3.91-2.44,5.71-2.12,2.22-4.52,4.76-1.91,8.55,1.74,2.52,2.17,4.56,1.19,5.6s-3.7.9-6.35-.66C170.74,265.86,169.94,260.91,170.94,253.37Z" transform="translate(-24.12 -45.25)"/><path class="cls-14" d="M163.91,297.8c3.07-1.11,4.1.43,5.59,2.65,1.34,2,3,4.47,6.74,5.35a8.26,8.26,0,0,0,3.63.05,9.82,9.82,0,0,0,6.65-5.4c1.59-3.39.89-6.78-1.84-8.83a4.24,4.24,0,0,1-1.92-2.59c-.16-1.2.74-2.36,1.7-3.59,1.33-1.71,2.83-3.65,1.68-6.12a5.54,5.54,0,0,0-4.82-3.27c-3.66-.27-7.76,2.21-10.45,6.3a13.37,13.37,0,0,1-7.42,5.69c0,.26,0,.52.05.78a14.18,14.18,0,0,0,8-6.05,13,13,0,0,1,7.71-5.81,7.15,7.15,0,0,1,2.05-.15,4.8,4.8,0,0,1,4.18,2.83c1,2.05-.28,3.64-1.59,5.33-1,1.3-2.06,2.64-1.86,4.16a5,5,0,0,0,2.22,3.1c2.9,2.18,2.73,5.51,1.61,7.9-1.5,3.19-5.22,5.92-9.42,4.93-3.44-.81-4.94-3.05-6.27-5-1.49-2.22-2.8-4.17-6.26-3Z" transform="translate(-24.12 -45.25)"/><path class="cls-14" d="M202.79,288.53a3.1,3.1,0,0,0,2.23,2.56,4.55,4.55,0,0,0,2.08,0A9.61,9.61,0,0,0,212,288c1.52-1.72,3-1.51,5.14-1.2a12.78,12.78,0,0,0,7.82-.82,5.74,5.74,0,0,0,3.24-7.5,5,5,0,0,0-6.39-3.13,15.86,15.86,0,0,0-5,2.89c-2,1.54-3.69,2.87-7.59,2.63a5.67,5.67,0,0,0-4.61,1.55c-2.16,2.21-1.87,5.95-1.86,6.11A.08.08,0,0,1,202.79,288.53Zm.75-.12c0-.29-.19-3.61,1.65-5.5a4.89,4.89,0,0,1,4-1.31c4.19.25,6.09-1.23,8.1-2.8a15.13,15.13,0,0,1,4.78-2.77,4.28,4.28,0,0,1,5.44,2.68,5,5,0,0,1-2.84,6.54,11.88,11.88,0,0,1-7.4.75,9.48,9.48,0,0,0-3.3-.1,4.48,4.48,0,0,0-2.52,1.55c-1.93,2.18-4.5,3.38-6.25,2.91A2.34,2.34,0,0,1,203.54,288.41Z" transform="translate(-24.12 -45.25)"/><path class="cls-14" d="M236.27,306.93c-2.63,4.34-1.52,9.17,1.07,11.34a5.33,5.33,0,0,0,4.3,1.21,3.65,3.65,0,0,0,.31-.24c0-.19.06-.39.08-.6a4.61,4.61,0,0,1-4.2-1c-2.34-2-3.32-6.37-.91-10.35s.52-5.29-1.52-6.61c-1.88-1.22-3.82-2.48-3.53-6.1a5.92,5.92,0,0,1,2.16-4.28A9.38,9.38,0,0,1,238,288.6a17.24,17.24,0,0,1,3-.34c0-.26,0-.52-.07-.77-2.17.08-5.19.53-7.31,2.26a6.6,6.6,0,0,0-2.44,4.8c-.33,4.09,2,5.59,3.87,6.81C237,302.66,238.33,303.53,236.27,306.93Z" transform="translate(-24.12 -45.25)"/><path class="cls-14" d="M172.7,331.15l.76.25a7.93,7.93,0,0,1,2.06-5.4c1.46-1.42,3.64-2,6.47-1.66a10.92,10.92,0,0,1,7,3.36c2.53,2.32,4.28,3.42,10.89-.89a20.37,20.37,0,0,1,6.87-3c3.28-.69,5.8,0,7.12,1.34,1.63,1.68,1.54,4.32-.19,7.19l1-.24c1.57-2.94,1.49-5.67-.27-7.48-2.35-2.42-8-2.95-15,1.57-6.43,4.21-7.76,3-9.95,1a11.7,11.7,0,0,0-7.42-3.56c-3.08-.34-5.47.29-7.1,1.87A8.56,8.56,0,0,0,172.7,331.15Z" transform="translate(-24.12 -45.25)"/><path class="cls-14" d="M215.63,318.85c1,2,4.11,3.74,7.06,3.12l.39-.09c4.5-1.28,7.09-4.92,7.29-10.27.15-4.14-.23-8.2-4.07-10l-.06,0c-.18,0-4.42-1.07-7.06.72a4.59,4.59,0,0,0-2,3.38,8.5,8.5,0,0,0,1,5.4c.72,1.44,1,2.1-1.16,3.6C215.45,315.84,214.92,317.35,215.63,318.85Zm1.88-3.49c2.62-1.79,2.24-2.9,1.42-4.57a7.77,7.77,0,0,1-1-5,3.91,3.91,0,0,1,1.64-2.85c2.25-1.52,6-.71,6.41-.62,2.74,1.27,3.78,3.95,3.58,9.22-.13,3.53-1.4,8.06-6.73,9.56-2.65.75-5.7-.79-6.55-2.61C215.77,317.36,216.18,316.27,217.51,315.36Z" transform="translate(-24.12 -45.25)"/><path class="cls-14" d="M167,328.83l.71.34a7.38,7.38,0,0,0,1.94-6c-.49-3.46-3.39-6.36-5.3-7.92,0,.34,0,.68,0,1,1.79,1.57,4.12,4.11,4.54,7a6.77,6.77,0,0,1-1.83,5.52Z" transform="translate(-24.12 -45.25)"/><path class="cls-5" d="M152.28,162.43s-11.35-2.4-11.62-6.73c-.24-4,4.48-3.58,4.48-3.58s-5.51-9-2.35-10.81,7.15,3.29,7.15,3.29-2.89-10.72,1-9.95,4.36,6.66,4.36,6.66,12.83-4.57,20.12-2.38a9.34,9.34,0,0,1,6.14,6.28s2.95-1.76,5.05-.68.18,4.76.18,4.76a6.53,6.53,0,0,1,2.25,6.45c-1,4-3.82,11.78-3.82,11.78Z" transform="translate(-24.12 -45.25)"/><path class="cls-10" d="M168.3,193.93l1.1,5.22a16.61,16.61,0,0,0,2.12.9c10.2,3.53,18.55-5.26,18.55-5.26l-3.81-18.08-15.82,15.17Z" transform="translate(-24.12 -45.25)"/><path class="cls-5" d="M168.3,193.93l1.1,5.22a16.61,16.61,0,0,0,2.12.9c7.06-4.68,11-14,11-14l-12.05,5.78Z" transform="translate(-24.12 -45.25)"/><path class="cls-5" d="M158.26,151.7s-12.35,3.84-5,16.06C153.23,167.76,159.27,155.08,158.26,151.7Z" transform="translate(-24.12 -45.25)"/><path class="cls-11" d="M156.91,172.19s-3.7-2.87-4.64,1,1.85,10.66,6.11,8.55Z" transform="translate(-24.12 -45.25)"/><path class="cls-10" d="M156.34,185.13s2.25,10.79,13.46,8.4S186.7,180.8,187,180.32v0l-.36-2.29-1.84-11.89-1-6.36s-1-11.62-12.15-11.42c-8.18.15-15.28,3-18.13,7.89a9.81,9.81,0,0,0-1.27,6.2l2,11.36.5,2.79Z" transform="translate(-24.12 -45.25)"/><path class="cls-4" d="M161.09,179.21s6.31-.64,9.4-2.41c0,0,1.39,6.16-4,6.69C162.26,183.91,161.09,179.21,161.09,179.21Z" transform="translate(-24.12 -45.25)"/><path class="cls-11" d="M169.23,172.1c.17.78,1.92,1.08,3.91.66s3.48-1.4,3.31-2.18-1.91-1.08-3.91-.66S169.07,171.31,169.23,172.1Z" transform="translate(-24.12 -45.25)"/><path class="cls-11" d="M154.81,176.58c.28,0,.58-.08.88-.14,2-.42,3.47-1.4,3.31-2.19s-1.92-1.08-3.91-.66l-.78.2Z" transform="translate(-24.12 -45.25)"/><path class="cls-5" d="M168.44,167.75c.23,1.08.9,1.85,1.5,1.72s.91-1.1.68-2.18-.9-1.85-1.5-1.72S168.21,166.67,168.44,167.75Z" transform="translate(-24.12 -45.25)"/><path class="cls-5" d="M157.77,170c.23,1.08.9,1.85,1.51,1.72s.9-1.1.68-2.18-.9-1.85-1.51-1.72S157.54,168.92,157.77,170Z" transform="translate(-24.12 -45.25)"/><path class="cls-5" d="M164.4,174.27a.45.45,0,1,0-.19-.88,3.1,3.1,0,0,1-2.9-.68c1-4,2-8.07,2-8.11a.46.46,0,0,0-.33-.55.45.45,0,0,0-.55.34s-1,4.24-2,8.34a.43.43,0,0,0,.07.38A3.88,3.88,0,0,0,164.4,174.27Z" transform="translate(-24.12 -45.25)"/><path class="cls-5" d="M172.79,161.67c-.48-1.09-1.88-3-5.55-2.42a1,1,0,0,0-.82.9h0a1,1,0,0,0,1,1,4.35,4.35,0,0,1,3.64,1.61,1,1,0,0,0,1.43.07l.09-.09A1,1,0,0,0,172.79,161.67Z" transform="translate(-24.12 -45.25)"/><path class="cls-5" d="M154.14,165.6c0-1.19.51-3.53,4.11-4.46a1,1,0,0,1,1.11.5h0a1,1,0,0,1-.49,1.35,4.36,4.36,0,0,0-2.69,2.94,1,1,0,0,1-1.27.64l-.12,0A1,1,0,0,1,154.14,165.6Z" transform="translate(-24.12 -45.25)"/><path class="cls-5" d="M182.57,176.68c.08.11,2.19,3.1,4.44,3.64v0l-.36-2.29A8,8,0,0,1,182.57,176.68Z" transform="translate(-24.12 -45.25)"/><path class="cls-10" d="M183,168.78s3.09-6.7,7.21-2.82c3.39,3.2.53,14-5.33,11.75Z" transform="translate(-24.12 -45.25)"/><path class="cls-5" d="M185.08,175.84a.44.44,0,0,0,.35-.49,7.6,7.6,0,0,1,3-6.88.45.45,0,1,0-.5-.75,8.47,8.47,0,0,0-3.45,7.72.46.46,0,0,0,.5.41Z" transform="translate(-24.12 -45.25)"/><path class="cls-5" d="M188.65,172.28A.46.46,0,0,0,189,172a.45.45,0,0,0-.2-.61c-.2-.1-2.06-1-3.32-.4a.45.45,0,1,0,.4.81,3.63,3.63,0,0,1,2.51.4A.45.45,0,0,0,188.65,172.28Z" transform="translate(-24.12 -45.25)"/><path class="cls-5" d="M153.55,156.23a2,2,0,0,0,.69.86c2.66,1.83,7.64-.07,12.1-2.55a8.57,8.57,0,0,1,8.55.28c-.37,4.85,4.21,4.27,4,7.94a28.21,28.21,0,0,0,1.1,8.15l2.72-1a7,7,0,0,1,2.13-3.83l-1-6.36s-1-11.62-12.16-11.42C163.5,148.49,156.4,151.34,153.55,156.23Z" transform="translate(-24.12 -45.25)"/><path class="cls-5" d="M237.09,309.18s10.68,42.13-44.69,42.13c-29.57,0-43.63-2.86-43.63-2.86s-.71,26.12-2.08,37.13-6.25,38.47-6.25,38.47l-23.29,1.8s-3.73-95.6,10.55-104.4,34.8-9.07,70-12.45C197.74,309,229.38,303.65,237.09,309.18Z" transform="translate(-24.12 -45.25)"/><path class="cls-13" d="M137.25,416.41a.39.39,0,0,1-.15,0,.63.63,0,0,1-.47-.76c3.22-13.45,4.5-32.71,5.53-48.19,1-15.26,1.61-23.29,3.2-24.69,1.75-1.55,6.93-1,15.52-.08,10.65,1.13,26.74,2.84,44.08.85,8.62-1,15.22-4.36,19.63-10,7.92-10.16,6.1-24.43,6.08-24.58a.64.64,0,0,1,1.26-.17c.08.61,1.91,14.93-6.33,25.52-4.63,5.95-11.52,9.49-20.49,10.52-17.49,2-33.66.29-44.36-.85-7.39-.79-13.22-1.41-14.55-.23-.3.26-.9,1.57-1.52,7.36-.45,4.28-.83,9.93-1.26,16.46-1,15.53-2.31,34.85-5.56,48.4A.63.63,0,0,1,137.25,416.41Z" transform="translate(-24.12 -45.25)"/><path class="cls-13" d="M117.4,418.31a.63.63,0,0,1,0-1.26l23.82-1.44a.63.63,0,0,1,.08,1.26l-23.82,1.44Z" transform="translate(-24.12 -45.25)"/><rect class="cls-3" x="87.3" y="266.82" width="70.35" height="9.17" rx="0.29"/><path class="cls-4" d="M104.07,321.24a5.84,5.84,0,0,1-5.64-4.34L85.27,267.63a4.74,4.74,0,0,1,4.58-6h31.5a4.73,4.73,0,0,1,4.56,3.46l15.76,56.11Z" transform="translate(-24.12 -45.25)"/><path class="cls-3" d="M125.92,265.13l15.63,55.64h3.59l-15.63-55.64a4.74,4.74,0,0,0-4.56-3.47h-3.6A4.76,4.76,0,0,1,125.92,265.13Z" transform="translate(-24.12 -45.25)"/><path class="cls-3" d="M117,292.25a4.31,4.31,0,0,1-4.31,5.6,7.49,7.49,0,0,1-6.9-5.6,4.32,4.32,0,0,1,4.31-5.6A7.49,7.49,0,0,1,117,292.25Z" transform="translate(-24.12 -45.25)"/><path class="cls-10" d="M160,301.16s-14.28,1-18.84,5.35l2.77,9.88s8.54-3.49,10.91-3.15,3.77,4.22,11.68,1.86Z" transform="translate(-24.12 -45.25)"/><path class="cls-10" d="M160.05,300.51l1.61-.65,1.68-.71c1.11-.47,2.23-1,3.34-1.45,2.23-1,4.45-2,6.64-3.07,4.39-2.11,8.7-4.34,12.86-6.72a124.74,124.74,0,0,0,11.83-7.6c.91-.68,1.81-1.36,2.67-2.06s1.69-1.4,2.49-2.11a37.47,37.47,0,0,0,4.14-4.3,18.59,18.59,0,0,0,1.42-2,13.06,13.06,0,0,0,.93-1.91A24,24,0,0,0,211,263a50.27,50.27,0,0,0,.23-12.28A99.47,99.47,0,0,0,209,237.37c-.51-2.24-1.09-4.48-1.72-6.69-.31-1.11-.64-2.21-1-3.29-.17-.55-.34-1.08-.52-1.61l-.27-.77-.13-.37-.06-.17,0-.08v0a12.62,12.62,0,0,1,22.75-10.91,13.22,13.22,0,0,1,.72,1.86l.38,1.31.1.34.08.29.14.53.28,1c.17.69.34,1.37.5,2,.31,1.35.61,2.69.89,4,.55,2.69,1,5.38,1.45,8.1A123.15,123.15,0,0,1,234,249.69a83.43,83.43,0,0,1-.32,8.74,62.63,62.63,0,0,1-1.48,9.1A44.4,44.4,0,0,1,228.8,277a35.37,35.37,0,0,1-2.82,4.65,42.12,42.12,0,0,1-3.25,3.91,58.69,58.69,0,0,1-6.83,6.11c-2.31,1.77-4.64,3.36-7,4.83a142.72,142.72,0,0,1-14.25,7.73c-4.79,2.28-9.61,4.34-14.47,6.25-2.44.95-4.88,1.87-7.33,2.74-1.23.44-2.46.87-3.7,1.29l-1.87.63-1.95.63a8.05,8.05,0,0,1-5.54-15.11Z" transform="translate(-24.12 -45.25)"/><path class="cls-11" d="M218.48,273.4a.32.32,0,0,1-.14,0A36.2,36.2,0,0,0,208,272.14a.5.5,0,0,1,0-1,36.5,36.5,0,0,1,10.69,1.28.49.49,0,0,1,.34.62A.51.51,0,0,1,218.48,273.4Z" transform="translate(-24.12 -45.25)"/><path class="cls-11" d="M209.2,272.13a.5.5,0,0,1-.32-.88,12.76,12.76,0,0,1,4.19-2.29.49.49,0,0,1,.62.34.5.5,0,0,1-.33.62,11.93,11.93,0,0,0-3.83,2.08A.46.46,0,0,1,209.2,272.13Z" transform="translate(-24.12 -45.25)"/><path class="cls-6" d="M236.28,241.56l-10.35,2.84-.76.21-7.15,2-.87.24-9.2,2.52-.71-3.26-.16-.79-1.66-7.65-.17-.77-3.13-14.45a30.61,30.61,0,0,1-.94-10.93,14.18,14.18,0,0,1,13.29-12,10.19,10.19,0,0,1,4.11.61,7.21,7.21,0,0,1,.77.3,16.43,16.43,0,0,1,6.45,5.83c.15.21.29.42.42.64,3.5,5.32,5.89,12.76,7.49,19.71.07.28.13.55.19.82.74,3.31,1.3,6.5,1.72,9.26q.1.63.18,1.26C236,239.24,236.16,240.48,236.28,241.56Z" transform="translate(-24.12 -45.25)"/><path class="cls-14" d="M235.62,236.61a6,6,0,0,0-5.45-1.45c-3,.54-5.43-.43-6.39-2.63a3.77,3.77,0,0,1,.78-4.45c2.34-1.8,5.93-1.65,9.34-.73-.06-.27-.12-.54-.19-.82-3.5-.88-7.16-.94-9.62.94a4.2,4.2,0,0,0-1.43,3.86,5.63,5.63,0,0,0,.41,1.52c1.12,2.53,3.83,3.68,7.24,3.06a5.34,5.34,0,0,1,5.49,2Q235.73,237.24,235.62,236.61Z" transform="translate(-24.12 -45.25)"/><path class="cls-14" d="M224.81,214c-2.12-3.07-.53-5.1,1.41-7.16-.13-.22-.27-.43-.42-.64-2.05,2.15-4.12,4.62-1.62,8.23,1.73,2.52,2.16,4.56,1.19,5.61s-3.71.89-6.36-.66c-2.44-1.45-3.23-6.38-2.24-13.92a8.65,8.65,0,0,1,2.2-4.71l.38-.38a7.21,7.21,0,0,0-.77-.3,9.33,9.33,0,0,0-2.57,5.28,32.93,32.93,0,0,0,0,10.2c.43,2,1.24,3.66,2.64,4.49a8.55,8.55,0,0,0,5.68,1.39,3,3,0,0,0,1.63-.88C227.17,219.2,226.76,216.82,224.81,214Z" transform="translate(-24.12 -45.25)"/><path class="cls-14" d="M205.44,237c-1.7-10.11-3.85-19.57-3.87-19.67a.38.38,0,1,0-.74.16c0,.11,2.16,9.51,3.86,19.57C204.8,237.41,205.44,237.43,205.44,237Z" transform="translate(-24.12 -45.25)"/><path class="cls-14" d="M202.7,224.75a.36.36,0,0,1-.2-.06l-3.9-2.5a.37.37,0,0,1-.12-.52.38.38,0,0,1,.52-.11l3.9,2.5a.37.37,0,0,1,.12.52A.39.39,0,0,1,202.7,224.75Z" transform="translate(-24.12 -45.25)"/><path class="cls-4" d="M177.42,225.83a5.37,5.37,0,0,1-3.61-1.43c-6.16-5.43-6.14-25.17-6.13-26a.72.72,0,0,1,.72-.72h0a.72.72,0,0,1,.71.72c0,.2,0,19.92,5.65,24.93a3.9,3.9,0,0,0,3.23,1c7.58-1,11-23.09,11.73-31.52a.71.71,0,0,1,.77-.65.72.72,0,0,1,.66.77,122.77,122.77,0,0,1-2.51,15.71c-2.55,10.77-6.07,16.53-10.47,17.11A4.73,4.73,0,0,1,177.42,225.83Z" transform="translate(-24.12 -45.25)"/><path class="cls-17" d="M234.75,410.21H160a3.17,3.17,0,1,1,0-6.33h74.78a3.17,3.17,0,1,1,0,6.33Z" transform="translate(-24.12 -45.25)"/><path class="cls-18" d="M153.09,458.58l-.42,0A3.17,3.17,0,0,1,150,455l13.62-101.71a3.17,3.17,0,0,1,3.14-2.75h61a3.17,3.17,0,0,1,3.14,2.76L244.27,455a3.17,3.17,0,1,1-6.28.83l-13.05-98.95H169.48l-13.25,99A3.17,3.17,0,0,1,153.09,458.58Z" transform="translate(-24.12 -45.25)"/><path class="cls-18" d="M184.38,353.71H224c12.55,0,26-6.87,27.92-19.27a235.1,235.1,0,0,0,2.5-47.39c-.82-16.67-7.29-32.15-20.4-42.48h0s5.66,64.29.56,82.06C227.76,350.36,184.38,353.71,184.38,353.71Z" transform="translate(-24.12 -45.25)"/><path class="cls-18" d="M63.12,221.3v19a4.55,4.55,0,0,0,4.55,4.55h34.54l10.43,3.74a1.32,1.32,0,0,0,1.68-1.72l-3.94-10.19V221.3a4.56,4.56,0,0,0-4.56-4.56H67.67A4.56,4.56,0,0,0,63.12,221.3Z" transform="translate(-24.12 -45.25)"/><path class="cls-17" d="M93.12,231.35a3.3,3.3,0,1,0,3.3-3.3A3.29,3.29,0,0,0,93.12,231.35Z" transform="translate(-24.12 -45.25)"/><path class="cls-17" d="M82.7,231.35a3.29,3.29,0,1,0,3.29-3.3A3.29,3.29,0,0,0,82.7,231.35Z" transform="translate(-24.12 -45.25)"/><path class="cls-17" d="M72.27,231.35a3.3,3.3,0,1,0,3.29-3.3A3.29,3.29,0,0,0,72.27,231.35Z" transform="translate(-24.12 -45.25)"/><ellipse class="cls-3" cx="620.24" cy="101.29" rx="26.93" ry="26.6"/><ellipse class="cls-19" cx="620.24" cy="97.83" rx="26.93" ry="26.6"/><ellipse class="cls-4" cx="620.24" cy="97.83" rx="21.9" ry="21.62"/><path class="cls-3" d="M666.26,143.08c0,.58,0,1.15-.07,1.71a21.92,21.92,0,0,0-43.66,0c0-.56-.07-1.13-.07-1.71a21.9,21.9,0,0,1,43.8,0Z" transform="translate(-24.12 -45.25)"/><path class="cls-5" d="M644.36,145.33a.56.56,0,0,1-.44-.22l-10.74-14.28a.54.54,0,0,1,.11-.76.57.57,0,0,1,.77.12l10.48,13.93L656.45,139a.54.54,0,0,1,.72.28.53.53,0,0,1-.28.71l-12.31,5.34A.57.57,0,0,1,644.36,145.33Z" transform="translate(-24.12 -45.25)"/><rect class="cls-18" x="63.75" y="92.19" width="9.67" height="41.24" rx="1.19"/><rect class="cls-17" x="65.21" y="111.4" width="6.73" height="2.82" rx="1.17"/><rect class="cls-17" x="63.75" y="95.52" width="9.67" height="1.59"/><rect class="cls-17" x="63.75" y="98.85" width="9.67" height="1.59"/><rect class="cls-17" x="63.75" y="123.43" width="9.67" height="1.59"/><rect class="cls-17" x="63.75" y="126.76" width="9.67" height="1.59"/><rect class="cls-7" x="43.31" y="91.72" width="9.67" height="41.24" rx="0.3"/><rect class="cls-12" x="45.88" y="111.4" width="6.73" height="2.82" rx="1.17"/><rect class="cls-12" x="44.41" y="95.52" width="9.67" height="1.59"/><rect class="cls-12" x="44.41" y="98.85" width="9.67" height="1.59"/><rect class="cls-12" x="44.41" y="123.43" width="9.67" height="1.59"/><rect class="cls-12" x="44.41" y="126.76" width="9.67" height="1.59"/><rect class="cls-6" x="54.08" y="92.19" width="9.67" height="41.24" rx="1.19"/><rect class="cls-14" x="55.55" y="111.4" width="6.73" height="2.82" rx="1.17"/><rect class="cls-14" x="54.08" y="95.52" width="9.67" height="1.59"/><rect class="cls-14" x="54.08" y="98.85" width="9.67" height="1.59"/><rect class="cls-14" x="54.08" y="123.43" width="9.67" height="1.59"/><rect class="cls-14" x="54.08" y="126.76" width="9.67" height="1.59"/><rect class="cls-15" x="100.64" y="136.97" width="9.67" height="41.24" rx="0.3" transform="translate(-47.86 -26.45) rotate(-9.16)"/><rect class="cls-16" x="102.11" y="156.18" width="6.73" height="2.82" rx="0.26" transform="translate(-47.86 -26.45) rotate(-9.16)"/><rect class="cls-16" x="98.02" y="140.51" width="9.67" height="1.59" transform="translate(-45.3 -27.08) rotate(-9.16)"/><rect class="cls-16" x="98.55" y="143.8" width="9.67" height="1.59" transform="translate(-45.81 -26.95) rotate(-9.16)"/><rect class="cls-16" x="102.46" y="168.06" width="9.67" height="1.59" transform="matrix(0.99, -0.16, 0.16, 0.99, -49.63, -26.02)"/><rect class="cls-16" x="102.99" y="171.35" width="9.67" height="1.59" transform="translate(-50.14 -25.9) rotate(-9.16)"/><g class="cls-1"><polygon class="cls-3" points="113.99 144.48 26.41 144.48 24.49 139.39 116.17 139.39 113.99 144.48"/></g><rect class="cls-5" x="24.49" y="133.34" width="91.68" height="6.05"/><polygon class="cls-5" points="33.84 139.39 36.29 144.53 42.06 144.53 43.71 139.39 33.84 139.39"/><polygon class="cls-5" points="106.83 139.39 104.38 144.53 98.6 144.53 96.96 139.39 106.83 139.39"/><ellipse class="cls-3" cx="558.96" cy="419.67" rx="132.05" ry="7.77"/><path class="cls-5" d="M634.84,468.55c-41.26-1.45-83.93-7.07-106-83.09-6.57-22.6-2.3-39.71,4.91-52.61a77.74,77.74,0,0,1,5.76-8.8h0c.76-1,1.53-2,2.3-2.94A60,60,0,0,1,608.92,303c13.44,4.89,30.68,12.14,46.05,21.56,30.88,18.92,38.13,40.5,48.22,77.52.86,3.18,1.73,6.74,2.39,10.53.35,2,.64,4.11.84,6.23C708.66,442.5,699.53,470.83,634.84,468.55Z" transform="translate(-24.12 -45.25)"/><path class="cls-13" d="M706.42,418.83a48.49,48.49,0,0,1-5.92,11.49c-7.8,11.18-24,24.68-57.13,25.56-1.46,0-2.9.05-4.31.05a115.21,115.21,0,0,1-34-4.63,83,83,0,0,1-28.44-15c-14.18-11.43-25.86-28.16-37.87-54.24a75.86,75.86,0,0,1-7.32-31,67.6,67.6,0,0,1,2.29-18.16,77.74,77.74,0,0,1,5.76-8.8c-.51,1.18-1,2.42-1.48,3.71-4.32,11.85-7.3,30.7,3.07,53.21,21.09,45.77,45.54,73.83,102.21,72.35,32-.85,47.64-13.77,55.1-24.47a44.94,44.94,0,0,0,7.18-16.25C705.93,414.62,706.22,416.71,706.42,418.83Z" transform="translate(-24.12 -45.25)"/><path class="cls-17" d="M647.41,278.54s25.9,35.14,31.81,52.65-8.43,29.94-8.43,29.94l-13.32,5S643.78,304.31,647.41,278.54Z" transform="translate(-24.12 -45.25)"/><path class="cls-4" d="M645.12,377c-11.32,3.75-39,13.59-51,9.6a10.3,10.3,0,0,1-1.44-.58,7.42,7.42,0,0,1-3.09-2.61c-4.72-7.18-9.39-37.26-7.29-54.95.26-2.21.39-4.61.43-7.12.07-3.71-.06-7.68-.21-11.67-.6-15-3-25.4,3.46-29a75.74,75.74,0,0,1,17.72-7c2.88-.69,7.6-2.13,10.91-2.06l14.32,2.6s12.36,2.06,15.22,4.17,4.31,11.37,9.46,19.86,6.27,17,1.35,26.33c-4.28,8.1-3.53,5-4.09,18.33C650.19,359.18,667.23,369.65,645.12,377Z" transform="translate(-24.12 -45.25)"/><g class="cls-1"><path class="cls-3" d="M607.1,300.61a89.4,89.4,0,0,1,35.33-.32l.47,13.7s-21.78-2.42-35.49,1.07Z" transform="translate(-24.12 -45.25)"/></g><g class="cls-1"><path class="cls-3" d="M624.93,289h-.64c-8.48-.44-16.25-7.93-16.58-8.24a.59.59,0,0,1,0-.83.58.58,0,0,1,.82,0c.08.08,7.79,7.5,15.83,7.92,7.71.4,8.64-7.24,8.67-7.56a.58.58,0,1,1,1.16.12C634.17,280.52,633.15,289,624.93,289Z" transform="translate(-24.12 -45.25)"/></g><g class="cls-1"><path class="cls-3" d="M600.89,357.58a.5.5,0,0,1-.15-.17.6.6,0,0,1,.2-.83,71.22,71.22,0,0,1,28.55-9.83,52.38,52.38,0,0,1,12.58-.14.61.61,0,0,1-.18,1.2,52.26,52.26,0,0,0-12.31.14,70.07,70.07,0,0,0-28,9.66A.62.62,0,0,1,600.89,357.58Z" transform="translate(-24.12 -45.25)"/></g><path class="cls-18" d="M615.31,382.42c-10.19-3.22-19.41-9.73-25.7-15.52-.5-.46-1-.92-1.44-1.36-3.26-3.17-5.56-1.54-6.56-3.37-3.81-7-1.65-34.32,0-44.36s-5.28-28.45-1.55-35,16.57-8.87,16.57-8.87-1.81-2.12,1.64-4.55,12.63-1.42,12.63-1.42C611.33,311.41,617.49,351.79,615.31,382.42Z" transform="translate(-24.12 -45.25)"/><path class="cls-4" d="M605.29,370a.56.56,0,0,1-.56-.48c-4.64-30.15-.05-86.87,0-87.44a.57.57,0,0,1,1.14.1c-.05.56-4.62,57.15,0,87.17a.57.57,0,0,1-.47.65Z" transform="translate(-24.12 -45.25)"/><path class="cls-17" d="M614.62,374.49a.58.58,0,0,1-.56-.47c-6.07-34.64-6.55-94.39-6.55-95a.56.56,0,0,1,.56-.57h0a.56.56,0,0,1,.57.56c0,.6.49,60.26,6.54,94.8a.58.58,0,0,1-.46.66Z" transform="translate(-24.12 -45.25)"/><path class="cls-17" d="M604.55,278.68l-.15,0a19.08,19.08,0,0,1-7.86-4.23.57.57,0,0,1,.79-.82h0a18.26,18.26,0,0,0,7.37,3.95.57.57,0,0,1-.15,1.12Z" transform="translate(-24.12 -45.25)"/><path class="cls-18" d="M659.46,363.45A31.29,31.29,0,0,1,642.3,381.5c-1.67-33.15-5.48-71-10.39-111.31,0,0,5.17-.9,7.32,2.05a8.19,8.19,0,0,1,1.13,3.43,26.69,26.69,0,0,1,5.54,1.86c2.89,1.34,2.56,3.2,3.25,7.89s7.94,12,10.31,21.82-3.9,16.14-5.86,24.4S659.46,363.45,659.46,363.45Z" transform="translate(-24.12 -45.25)"/><path class="cls-4" d="M647.85,368.58a.57.57,0,0,1-.57-.56,559.83,559.83,0,0,0-9.63-85.82.57.57,0,0,1,1.12-.23,563.92,563.92,0,0,1,9.65,86,.58.58,0,0,1-.55.59Z" transform="translate(-24.12 -45.25)"/><path class="cls-17" d="M635.41,279.93a.57.57,0,0,1-.1-1.13s3.68-.66,4.51-3.3a.57.57,0,1,1,1.08.34c-1,3.31-5.22,4.05-5.4,4.08Z" transform="translate(-24.12 -45.25)"/><path class="cls-17" d="M646.53,368.58a.58.58,0,0,1-.57-.5c-4-33.26-10.32-86.41-10.38-86.95a.57.57,0,0,1,1.13-.13c.06.53,6.38,53.68,10.38,86.94a.56.56,0,0,1-.5.63Z" transform="translate(-24.12 -45.25)"/><path class="cls-7" d="M612.94,392.46a31.16,31.16,0,0,0,8.54,3.82c23.19,7.38,44.46-4.53,44.46-4.53,1.29-6.35.5-13.57-1.65-16.22a2.31,2.31,0,0,0,.23-2.06l21.35-22.16c-12.14,10.06-27.16,13.35-38.85,20.42h0c-3.37,2-6.4,3.83-8.62,5.08-3.39,1.9-7.71,2.08-11.95,1.5a58.2,58.2,0,0,1-16.17-5.21s-26.59-12.05-31.58-11.65C574.83,361.76,595.68,383.54,612.94,392.46Z" transform="translate(-24.12 -45.25)"/><path class="cls-10" d="M654,411s-6.84-2-8.95-4.19L640.33,418l16.19,5S656.74,413.26,654,411Z" transform="translate(-24.12 -45.25)"/><path class="cls-20" d="M693.1,443.39l-20.93-46.45a7,7,0,0,0-2.85.55c-4.06,1.48-9.77,5.55-13.45,7.95l-1.2.77a14.16,14.16,0,0,1-1.55.86c-3.23,1.45-1.53,3.2-1.53,3.2,6,3,2.36,11.92,6,14,0,0,1.57.9,6.55,3.1s10,7.48,14.63,11.81c6,5.59,9.75,6.25,11.9,5.74A4,4,0,0,0,693.1,443.39Z" transform="translate(-24.12 -45.25)"/><path class="cls-16" d="M693.1,443.39l-20.93-46.45a7,7,0,0,0-2.85.55l21.37,47.44A4,4,0,0,0,693.1,443.39Z" transform="translate(-24.12 -45.25)"/><path class="cls-16" d="M674.31,401.67l-.63-1.38a11.12,11.12,0,0,1-6.31,5.85,14.34,14.34,0,0,1-11.5-.7l-1.2.77a15.61,15.61,0,0,0,13.14,1.06A12.37,12.37,0,0,0,674.31,401.67Z" transform="translate(-24.12 -45.25)"/><path class="cls-4" d="M666.54,425.36a.81.81,0,0,0-.91-.48.84.84,0,0,0-.68,1l.59,3.23a.84.84,0,0,0,1.65-.3l-.59-3.23A.6.6,0,0,0,666.54,425.36Z" transform="translate(-24.12 -45.25)"/><path class="cls-4" d="M662.83,423.56a.85.85,0,0,0-.92-.48.84.84,0,0,0-.67,1l.58,3.22a.84.84,0,1,0,1.65-.3l-.58-3.22Z" transform="translate(-24.12 -45.25)"/><path class="cls-4" d="M669.54,427.5a.84.84,0,0,0-1.6.49l.59,3.23a.84.84,0,1,0,1.65-.3l-.58-3.23Z" transform="translate(-24.12 -45.25)"/><path class="cls-4" d="M672.46,429.67a.82.82,0,0,0-.91-.48.84.84,0,0,0-.68,1l.59,3.23a.84.84,0,1,0,1.65-.3l-.59-3.23A.6.6,0,0,0,672.46,429.67Z" transform="translate(-24.12 -45.25)"/><path class="cls-4" d="M675.39,432.16a.84.84,0,0,0-.92-.48.83.83,0,0,0-.67,1l.58,3.23a.84.84,0,0,0,1.66-.3l-.59-3.23A.6.6,0,0,0,675.39,432.16Z" transform="translate(-24.12 -45.25)"/><path class="cls-4" d="M678.21,435a.83.83,0,0,0-.91-.48.84.84,0,0,0-.68,1l.59,3.22a.84.84,0,1,0,1.65-.3l-.59-3.22A.66.66,0,0,0,678.21,435Z" transform="translate(-24.12 -45.25)"/><path class="cls-21" d="M578.7,361.45s-16.82-9.08-26.57-2.06c-17.82,12.84,12.42,37.53,47,49.59S645,419.39,645,419.39s7.52-2.07,4.85-14.25c0,0-19.94-7.58-30.32-15.52S602.06,371.94,578.7,361.45Z" transform="translate(-24.12 -45.25)"/><path class="cls-12" d="M648.48,408.68c-7.26-1.74-22-8.52-39.55-18.14-13.1-7.19-28.2-16.38-30.42-19.57-1.2-1.72-1.5-3.13-.9-4.19.9-1.58,3.5-1.74,4.68-1.73a.53.53,0,0,1,.52.57h0a.53.53,0,0,1-.52.49c-1.17,0-3.19.19-3.76,1.2-.48.84.19,2.13.84,3.06,1.79,2.57,14.43,10.67,30.06,19.25,13.46,7.39,30.85,16,39.29,18Z" transform="translate(-24.12 -45.25)"/><path class="cls-12" d="M647.11,403.52c-.82,6.41-2.47,12.23-6.09,16.69,0,0,3.09,2.23,5.92.63,2.16-1.22,6.33-11.22,4.74-16.56C649.88,403.29,648.32,403,647.11,403.52Z" transform="translate(-24.12 -45.25)"/><path class="cls-10" d="M603.21,409.76s6.88-1.32,8.82-3.68l5.5,10.85-15.82,6.13S600.65,412.17,603.21,409.76Z" transform="translate(-24.12 -45.25)"/><path class="cls-20" d="M566.57,445.75,584.35,398a7.32,7.32,0,0,1,2.88.36c4.15,1.21,10.12,4.9,13.95,7l1.24.68a14.15,14.15,0,0,0,1.61.76C607.35,408.08,606,409,606,409c-6.54,3.07-1.75,13-5.27,15.3,0,0-1.5,1-6.32,3.53S584.9,436,580.56,440.6c-5.6,6-9.3,6.89-11.49,6.53A4,4,0,0,1,566.57,445.75Z" transform="translate(-24.12 -45.25)"/><path class="cls-16" d="M566.57,445.75,584.35,398a7.32,7.32,0,0,1,2.88.36l-18.16,48.77A4,4,0,0,1,566.57,445.75Z" transform="translate(-24.12 -45.25)"/><path class="cls-16" d="M582.53,402.87l.53-1.41a11.22,11.22,0,0,0,6.69,5.41,14.36,14.36,0,0,0,11.43-1.47l1.24.68a15.61,15.61,0,0,1-13,1.95A12.36,12.36,0,0,1,582.53,402.87Z" transform="translate(-24.12 -45.25)"/><path class="cls-4" d="M591.86,426a.84.84,0,0,1,1.62.39l-.37,3.26a.84.84,0,1,1-1.67-.19l.37-3.26A1.46,1.46,0,0,1,591.86,426Z" transform="translate(-24.12 -45.25)"/><path class="cls-4" d="M595.45,424a.84.84,0,0,1,1.62.38l-.37,3.26a.84.84,0,1,1-1.67-.19l.37-3.26A.59.59,0,0,1,595.45,424Z" transform="translate(-24.12 -45.25)"/><path class="cls-4" d="M589,428.32a.84.84,0,0,1,1.62.39l-.37,3.26a.84.84,0,1,1-1.67-.19l.37-3.26A.65.65,0,0,1,589,428.32Z" transform="translate(-24.12 -45.25)"/><path class="cls-4" d="M586.24,430.68a.84.84,0,0,1,1.62.39l-.37,3.26a.84.84,0,1,1-1.67-.19l.37-3.26A1.46,1.46,0,0,1,586.24,430.68Z" transform="translate(-24.12 -45.25)"/><path class="cls-4" d="M583.49,433.36a.84.84,0,0,1,1.62.39l-.37,3.26a.84.84,0,1,1-1.67-.19l.37-3.26A.65.65,0,0,1,583.49,433.36Z" transform="translate(-24.12 -45.25)"/><path class="cls-4" d="M580.86,436.4a.84.84,0,0,1,1.62.39l-.37,3.26a.84.84,0,0,1-1.67-.19l.37-3.26A1.17,1.17,0,0,1,580.86,436.4Z" transform="translate(-24.12 -45.25)"/><path class="cls-21" d="M679,354.07s15.93-10.58,26.28-4.49c18.92,11.15-8.93,38.51-42.27,53.7s-44.68,14.57-44.68,14.57-7.68-1.37-6.14-13.75c0,0,19.16-9.38,28.77-18.24S656.73,366.66,679,354.07Z" transform="translate(-24.12 -45.25)"/><path class="cls-12" d="M649.9,409c-1.84.6-3.7,1.21-5.63,1.81-7.46,2.35-16,4.81-23.69,6.7l0,1.11c7-1.7,15.14-4,24-6.8,1.73-.55,3.51-1.13,5.28-1.71Z" transform="translate(-24.12 -45.25)"/><path class="cls-12" d="M613.87,407.51c7.07-2.4,21.17-10.51,37.73-21.7,12.38-8.36,26.57-18.9,28.49-22.27,1-1.83,1.2-3.26.51-4.25-1-1.5-3.64-1.42-4.82-1.3a.53.53,0,0,0-.47.61h0a.53.53,0,0,0,.57.44c1.16-.12,3.19-.1,3.86.85.55.79,0,2.14-.57,3.13-1.54,2.72-13.39,11.94-28.16,21.92-12.73,8.6-29.25,18.78-37.47,21.57Z" transform="translate(-24.12 -45.25)"/><path class="cls-12" d="M614.76,402.24c1.4,6.31,3.59,11.95,7.6,16.06,0,0-2.88,2.51-5.84,1.17-2.27-1-7.33-10.59-6.24-16.06C612,402.27,613.51,401.78,614.76,402.24Z" transform="translate(-24.12 -45.25)"/><path class="cls-18" d="M612.61,351.73,611.33,370s-21.72-3.1-32.39-5.82a43.58,43.58,0,0,1-9.79-3.51c-5.88-3.13-10.77-8.57-10.41-19.19a49.29,49.29,0,0,1,2.11-11.93,247.14,247.14,0,0,1,20.76-48.81c16.73,7.16,15.33,19.08,15.33,19.08-4.78,12.73-15.33,39.84-15.33,39.84C587.73,347.14,612.61,351.73,612.61,351.73Z" transform="translate(-24.12 -45.25)"/><path class="cls-17" d="M581.61,340.23a.55.55,0,0,1-.3-.09c-1.84-1.14-6.88-2.33-6.93-2.34a.56.56,0,0,1-.42-.68.56.56,0,0,1,.68-.43,47.52,47.52,0,0,1,6,1.87,10.16,10.16,0,0,0-1.67-2.45.57.57,0,1,1,.85-.75,8.7,8.7,0,0,1,2.31,4.21.56.56,0,0,1-.24.56A.63.63,0,0,1,581.61,340.23Z" transform="translate(-24.12 -45.25)"/><path class="cls-17" d="M569.15,360.67c-5.88-3.13-10.77-8.57-10.41-19.19C563.41,343.92,571.54,349.83,569.15,360.67Z" transform="translate(-24.12 -45.25)"/><path class="cls-17" d="M598.94,348.93l-.14,0a44.64,44.64,0,0,1-17.57-8.83.58.58,0,0,1-.13-.68c7.68-15.09,12.53-27.07,15.29-37.71a.56.56,0,0,1,.69-.41.58.58,0,0,1,.41.69c-2.75,10.63-7.57,22.57-15.17,37.55a45.42,45.42,0,0,0,16.77,8.29.57.57,0,0,1,.4.69A.56.56,0,0,1,598.94,348.93Z" transform="translate(-24.12 -45.25)"/><path class="cls-17" d="M594.64,310.15a.6.6,0,0,1-.36-.12.58.58,0,0,1-.09-.8l4-5a.56.56,0,0,1,.8-.09.58.58,0,0,1,.09.8l-4,5A.56.56,0,0,1,594.64,310.15Z" transform="translate(-24.12 -45.25)"/><path class="cls-5" d="M613.24,264.1l19.3,2.76c12.54-1.25,16.53-6.24,18.58-16.78a28.57,28.57,0,0,0-.66-13.45c-.27-4-1.17-7.39-3-9.64-8.47-10.22-15.94-9.82-15.94-9.82-3.78-1.74-16.31-2.93-24.57,7.1h0c-.26.23-5.3,5.56-6.46,16.77C599.34,251.72,606.47,265.36,613.24,264.1Z" transform="translate(-24.12 -45.25)"/><path class="cls-5" d="M614.75,260.08s-12.31-6.88-9.89-21.22,11.86-23,26.33-18.81C631.19,220.05,629.79,261.5,614.75,260.08Z" transform="translate(-24.12 -45.25)"/><path class="cls-5" d="M649,233.72s1.26,12.31-1,14.09-4.44-3.09-4.44-3.09S646.62,233.85,649,233.72Z" transform="translate(-24.12 -45.25)"/><path class="cls-11" d="M643.32,248.93s3.67-3.23,4.89.72-1.25,11.22-5.82,9.29Z" transform="translate(-24.12 -45.25)"/><path class="cls-7" d="M647.84,258a7.57,7.57,0,0,1-1.67,1.19c-2.3,1.25-5.32,1.39-8.93-.51,0,0-4.63-6,2.21-16.64,0,0,6.27-1.65,9.85,2.15a7.18,7.18,0,0,1,1.08,1.46,8.15,8.15,0,0,1,.53,1.11C652.18,250,651,255.17,647.84,258Z" transform="translate(-24.12 -45.25)"/><path class="cls-4" d="M647.67,242.94a50.28,50.28,0,0,0,.77-5.13.6.6,0,0,1-.27.07,1.74,1.74,0,0,1-1.16-.4c-.16,1.82-.42,3.47-.68,4.84Z" transform="translate(-24.12 -45.25)"/><path class="cls-12" d="M647.84,258a7.57,7.57,0,0,1-1.67,1.19,31.29,31.29,0,0,0,3.13-15,7.18,7.18,0,0,1,1.08,1.46A32.37,32.37,0,0,1,647.84,258Z" transform="translate(-24.12 -45.25)"/><path class="cls-10" d="M632.61,266.69l-1.51,10.17s-6.23,8-20.65-5c1.64-4.14,4.15-9.46,3.51-13.55a21.66,21.66,0,0,0,2.87,2.12c.37.24.76.49,1.19.74C621.77,263.41,627.49,266.33,632.61,266.69Z" transform="translate(-24.12 -45.25)"/><path class="cls-5" d="M632.61,266.69l-.7,4.76c-4.21-1.62-11.49-5.13-15.08-11.06.37.24.76.49,1.19.74C621.77,263.41,627.49,266.33,632.61,266.69Z" transform="translate(-24.12 -45.25)"/><path class="cls-10" d="M646.45,249.38c-.16,1.05-.32,2-.47,3-1.16,7-2.22,10.8-4.17,12.29-9.87,7.57-27.27-5.8-27.83-6.24a0,0,0,0,1,0,0c-.06-.82-.1-1.62-.13-2.42A62.75,62.75,0,0,1,616,237.39a14.16,14.16,0,0,1,11.16-12.57c6.29-1.28,11.25,2.14,14.31,3.61,4.64,2.22,6.76,8.94,5.45,17.88C646.74,247.39,646.6,248.41,646.45,249.38Z" transform="translate(-24.12 -45.25)"/><path class="cls-5" d="M637.63,257.56c-5.52,0-7.73-5.28-7.75-5.34a.5.5,0,1,1,.93-.38h0c.09.23,2.4,5.71,8.43,4.55a.51.51,0,0,1,.59.4.51.51,0,0,1-.4.59A9.79,9.79,0,0,1,637.63,257.56Z" transform="translate(-24.12 -45.25)"/><path class="cls-5" d="M633.38,238.5a1.38,1.38,0,0,0-.37-2.68c-2.55-.16-6.65-.1-7,2-.5,3,4.26,1.75,7.27.75Z" transform="translate(-24.12 -45.25)"/><path class="cls-5" d="M640.91,239.38a1.38,1.38,0,0,1,1.41-2.3c2.41.88,6.13,2.59,5.61,4.61-.75,3-4.61-.11-6.95-2.24Z" transform="translate(-24.12 -45.25)"/><path class="cls-11" d="M633.56,260a4.29,4.29,0,0,0,1.92,0,.33.33,0,0,0,.24-.4.32.32,0,0,0-.4-.24h0a3.59,3.59,0,0,1-2.92-.73.33.33,0,0,0-.44.5A3.85,3.85,0,0,0,633.56,260Z" transform="translate(-24.12 -45.25)"/><path class="cls-5" d="M637,253.16a.43.43,0,0,1-.19-.21.38.38,0,0,1,.24-.47l2.41-.79-1.43-1.45a.34.34,0,0,1-.11-.29l.45-4a.35.35,0,0,1,.4-.32.37.37,0,0,1,.33.4l-.43,3.81,1.73,1.75a.38.38,0,0,1,.09.34.37.37,0,0,1-.24.26l-3,1A.38.38,0,0,1,637,253.16Z" transform="translate(-24.12 -45.25)"/><path class="cls-11" d="M630.77,249.35c-.12.83-1.92,1.24-4,.93s-3.7-1.24-3.58-2.07,1.93-1.24,4-.93S630.9,248.52,630.77,249.35Z" transform="translate(-24.12 -45.25)"/><g class="cls-1"><path class="cls-11" d="M646.45,250.34c-.16,1.06-.32,2-.47,3-1.92-.36-3.33-1.22-3.22-2S644.49,250.12,646.45,250.34Z" transform="translate(-24.12 -45.25)"/></g><path class="cls-5" d="M632.83,246.38c-.17,1.14-.83,2-1.46,1.89s-1-1.09-.85-2.23.83-2,1.46-1.89S633,245.25,632.83,246.38Z" transform="translate(-24.12 -45.25)"/><path class="cls-5" d="M644.07,248.06c-.17,1.14-.82,2-1.45,1.89s-1-1.1-.85-2.23.82-2,1.46-1.89S644.24,246.92,644.07,248.06Z" transform="translate(-24.12 -45.25)"/><path class="cls-5" d="M618.37,254.35c-.08.12-2.09,3.37-4.39,4.06h0c-.06-.82-.1-1.63-.13-2.42A8.82,8.82,0,0,0,618.37,254.35Z" transform="translate(-24.12 -45.25)"/><path class="cls-10" d="M617.46,246.15s-3.64-6.78-7.68-2.48c-3.33,3.54.27,14.84,6.4,11.82Z" transform="translate(-24.12 -45.25)"/><path class="cls-5" d="M615.71,253.64a.48.48,0,0,1-.4-.49,7.87,7.87,0,0,0-3.61-7,.49.49,0,0,1-.17-.65.48.48,0,0,1,.65-.17,8.82,8.82,0,0,1,4.07,7.83.47.47,0,0,1-.49.45Z" transform="translate(-24.12 -45.25)"/><path class="cls-5" d="M611.77,250.15a.47.47,0,0,1-.34-.23.46.46,0,0,1,.17-.64c.2-.13,2.08-1.2,3.43-.63a.47.47,0,1,1-.37.87c-.77-.33-2.16.32-2.58.57A.44.44,0,0,1,611.77,250.15Z" transform="translate(-24.12 -45.25)"/><path class="cls-4" d="M628.73,252.36a6.91,6.91,0,1,1,8.92-4A6.93,6.93,0,0,1,628.73,252.36Zm4.57-12a5.9,5.9,0,1,0,3.41,7.62A5.9,5.9,0,0,0,633.3,240.39Z" transform="translate(-24.12 -45.25)"/><path class="cls-4" d="M625,244.36a.61.61,0,0,1-.18-.05,10.27,10.27,0,0,0-7.28-.39.51.51,0,0,1-.66-.29.5.5,0,0,1,.29-.65,11.16,11.16,0,0,1,8.07.42.49.49,0,0,1,.25.66A.51.51,0,0,1,625,244.36Z" transform="translate(-24.12 -45.25)"/><path class="cls-4" d="M644,254.09a6.91,6.91,0,1,1,8.92-4A6.93,6.93,0,0,1,644,254.09Zm4.57-12a5.9,5.9,0,1,0,3.41,7.63A5.91,5.91,0,0,0,648.59,242.11Z" transform="translate(-24.12 -45.25)"/><path class="cls-4" d="M637.33,245.44a.49.49,0,0,1-.2-.18.52.52,0,0,1,.16-.7,3.13,3.13,0,0,1,3.5.27.51.51,0,1,1-.61.81,2.11,2.11,0,0,0-2.35-.22A.5.5,0,0,1,637.33,245.44Z" transform="translate(-24.12 -45.25)"/><path class="cls-5" d="M641,222.22a16.6,16.6,0,0,1,9,9.75c.92,2.73,1.7,6.34-2.14,5.87-10.49-1.27-16.09-12.15-16.09-12.15s-2,10-10.28,8.8-8-7.43-3.29-10.94C622,220.69,631.72,218,641,222.22Z" transform="translate(-24.12 -45.25)"/><path class="cls-5" d="M621.81,233.34s-4.69,5-3,10.44,1.8,9.75.05,12.65a33.16,33.16,0,0,0-2.54-10c-1.71-3.55-3.31-6.25-2.08-10.34C615.08,233.27,617.14,230.57,621.81,233.34Z" transform="translate(-24.12 -45.25)"/><path class="cls-7" d="M614.2,257.88c-3.63.88-6.44.37-8.52-.93a9.07,9.07,0,0,1-.94-.69c-4.36-3.65-4.69-11.22-2-14.93a8.43,8.43,0,0,1,3.17-2.75,7.82,7.82,0,0,1,1.05-.44c4.51-1.47,9.4,1.23,9.4,1.23C621.47,253.45,614.2,257.88,614.2,257.88Z" transform="translate(-24.12 -45.25)"/><path class="cls-4" d="M627,264a23.51,23.51,0,0,1-15.33-10.17.62.62,0,1,1,1.07-.61,23.2,23.2,0,0,0,18.44,10.08.62.62,0,0,1,.58.65.62.62,0,0,1-.65.58A27.09,27.09,0,0,1,627,264Z" transform="translate(-24.12 -45.25)"/><path class="cls-22" d="M634.53,264.39a2,2,0,1,1-1.53-2.32A2,2,0,0,1,634.53,264.39Z" transform="translate(-24.12 -45.25)"/><path class="cls-12" d="M605.68,257a9.07,9.07,0,0,1-.94-.69,25.22,25.22,0,0,0,1.16-17.68,7.82,7.82,0,0,1,1.05-.44A26.51,26.51,0,0,1,605.68,257Z" transform="translate(-24.12 -45.25)"/><path class="cls-4" d="M648.75,229.12a16.52,16.52,0,0,0-2.37-3.33,15.9,15.9,0,0,0-1.51-3.36c-2.22-3.52-5.74-5.68-10.45-6.41-5.09-.78-9.51.22-13.13,3a18.75,18.75,0,0,0-3,3,25.72,25.72,0,0,0-3.11,4.85,40.16,40.16,0,0,0-3.63,11.93l-1.39-.15c.06-.57,1.63-14.05,10.3-20.69,3.93-3,8.71-4.11,14.19-3.26,5.14.79,9,3.17,11.43,7.05A20.25,20.25,0,0,1,648.75,229.12Z" transform="translate(-24.12 -45.25)"/><path class="cls-5" d="M596,383l-4.84-9.2a3.43,3.43,0,0,1,3.07-5l76,.82L668,381.4Z" transform="translate(-24.12 -45.25)"/><path class="cls-5" d="M666.69,380.43h-68a2.61,2.61,0,0,1-2.64-3l4.63-42a3.42,3.42,0,0,1,3.31-3h68a2.62,2.62,0,0,1,2.65,3l-4.64,42A3.41,3.41,0,0,1,666.69,380.43Z" transform="translate(-24.12 -45.25)"/><path class="cls-23" d="M597.64,382.24h-.08a.57.57,0,0,1-.49-.64l5.64-45a.57.57,0,0,1,1.14.14l-5.64,45A.58.58,0,0,1,597.64,382.24Z" transform="translate(-24.12 -45.25)"/><path class="cls-13" d="M630.74,357.18a6,6,0,0,0,5.55,6.5,6.18,6.18,0,0,0,6.5-5.73,6,6,0,0,0-5.56-6.5A6.19,6.19,0,0,0,630.74,357.18Z" transform="translate(-24.12 -45.25)"/><path class="cls-5" d="M667,384.09H598a2.5,2.5,0,0,1-2.48-2.84l.66-4.81h74l-.75,5.48A2.49,2.49,0,0,1,667,384.09Z" transform="translate(-24.12 -45.25)"/><path class="cls-20" d="M617,370.52l-.49,2.4h2.27l-.25,2.85h-2.63l-.56,2.61h-3l.55-2.61h-1.86l-.55,2.61h-3l.55-2.61h-2.27l.25-2.86h2.63l.5-2.39h-2.28l.26-2.85h2.63l.55-2.61h3l-.55,2.61h1.86l.55-2.61h3l-.55,2.6h2.28l-.26,2.86Zm-3,0h-1.86l-.5,2.39h1.86Z" transform="translate(-24.12 -45.25)"/><path class="cls-6" d="M685.77,304.07a18.77,18.77,0,1,0,18.76-18.76A18.76,18.76,0,0,0,685.77,304.07Z" transform="translate(-24.12 -45.25)"/><polygon class="cls-6" points="670.82 274.17 660.73 276.31 665.1 267.62 670.82 274.17"/><path class="cls-4" d="M706.13,300.05c0-.88-.85-1.34-1.9-1.34a3.35,3.35,0,0,0-3,1.93l-5-2.52c1.45-2.72,4.31-4.6,8.85-4.6s7.77,1.88,7.77,5.42c0,4.34-4.54,5.1-4.54,7.29h-5.84C702.47,302.8,706.13,301.78,706.13,300.05Zm-4.48,10.66a3.77,3.77,0,0,1,7.49,0,3.76,3.76,0,0,1-7.49,0Z" transform="translate(-24.12 -45.25)"/><path class="cls-7" d="M499.23,410.73s-7.66-12.05-26.28-23c-13.15-7.73-20.81-29.57-20.81-29.57s25.19,1.1,36.14,16.43S499.23,410.73,499.23,410.73Z" transform="translate(-24.12 -45.25)"/><path class="cls-5" d="M499.31,411.05a.38.38,0,0,1-.36-.28,64,64,0,0,0-17.17-28.84,62.76,62.76,0,0,0-12-9.42.38.38,0,1,1,.36-.66,67.6,67.6,0,0,1,29.56,38.73.38.38,0,0,1-.27.46Z" transform="translate(-24.12 -45.25)"/><path class="cls-7" d="M495.93,410.46s-2.19-4.38-12.05-3.29-15.33,6.57-32.85-3.29c0,0,13.14-10.95,27.38-8.76S493.74,402.79,495.93,410.46Z" transform="translate(-24.12 -45.25)"/><path class="cls-5" d="M496,410.83a.36.36,0,0,1-.32-.18c0-.07-4.45-7-11.54-8.28-12.39-2.25-20.83,1.71-20.91,1.75a.38.38,0,0,1-.33-.68c.09,0,8.73-4.11,21.37-1.81,7.42,1.35,11.86,8.33,12,8.63a.37.37,0,0,1-.11.51A.39.39,0,0,1,496,410.83Z" transform="translate(-24.12 -45.25)"/><path class="cls-7" d="M500.23,409.4s-.86-4.82,7.7-9.83,16.22-3.89,24.39-22.26c0,0-17.08-.93-27.19,9.33S497.41,401.94,500.23,409.4Z" transform="translate(-24.12 -45.25)"/><path class="cls-5" d="M500.19,409.8a.38.38,0,0,1-.37-.34c0-.35-.64-8.6,4.51-14.12,8.77-9.39,18.13-11.29,18.22-11.3a.38.38,0,0,1,.44.29.37.37,0,0,1-.3.44c-.09,0-9.22,1.88-17.81,11.09-4.93,5.27-4.32,13.45-4.31,13.54a.38.38,0,0,1-.35.4Z" transform="translate(-24.12 -45.25)"/><rect class="cls-6" x="459.62" y="363.87" width="29.15" height="6.23" rx="2.57"/><path class="cls-6" d="M498.42,469c-19.58,0-32-3.12-30-16.91,1.28-8.76,8.1-17.33,12.92-22.43.68-.72,1.32-1.37,1.89-1.94,1.79-1.76,3-2.78,3-2.78l.06-.32.34-1.93.39-2.23.9-5.09.32-1.78,10.23-.45,10.68.45.25,1.78.38,2.79.62,4.53.27,1.93,0,.32s1.21,1,3,2.78c.58.57,1.22,1.22,1.9,1.94,4.82,5.1,11.64,13.67,12.91,22.43C530.47,465.86,518,469,498.42,469Z" transform="translate(-24.12 -45.25)"/><polygon class="cls-14" points="486.5 379.35 462.12 379.35 462.46 377.42 486.24 377.42 486.5 379.35"/><path class="cls-14" d="M515.55,429.64H481.3c.68-.72,1.32-1.37,1.89-1.94h30.46C514.23,428.27,514.87,428.92,515.55,429.64Z" transform="translate(-24.12 -45.25)"/><polygon class="cls-14" points="485.61 372.89 462.86 375.19 463.76 370.1 485.23 370.1 485.61 372.89"/><rect class="cls-4" x="249.1" y="222.8" width="12.56" height="9.69" rx="1.66"/><polygon class="cls-4" points="265.31 222.8 265.31 232.49 261.39 229.2 261.39 226.09 265.31 222.8"/><circle class="cls-24" cx="282.17" cy="227.65" r="8.07"/><path class="cls-4" d="M302.48,277.55a.82.82,0,0,0,.6-.25l7.61-7.61a.85.85,0,0,0-1.2-1.2l-7.61,7.61a.85.85,0,0,0,0,1.2A.83.83,0,0,0,302.48,277.55Z" transform="translate(-24.12 -45.25)"/><path class="cls-4" d="M310.09,277.55a.82.82,0,0,0,.6-.25.85.85,0,0,0,0-1.2l-7.61-7.61a.85.85,0,0,0-1.2,1.2l7.61,7.61A.85.85,0,0,0,310.09,277.55Z" transform="translate(-24.12 -45.25)"/><rect class="cls-4" x="258.76" y="265.41" width="4.44" height="11.57" rx="1.83" transform="translate(497.84 497.15) rotate(180)"/><rect class="cls-4" x="260.53" y="274.3" width="0.91" height="5.43" rx="0.38" transform="translate(497.84 508.78) rotate(180)"/><rect class="cls-4" x="256.52" y="278.24" width="8.92" height="1.91" rx="0.79" transform="translate(497.84 513.14) rotate(180)"/><path class="cls-14" d="M225.89,244a9.28,9.28,0,0,0-8.22-8.06,32.41,32.41,0,0,0-10.2.19,9.68,9.68,0,0,0-2.22.78l.17.77c2.33-1.25,6.51-1.6,12.16-1a8.72,8.72,0,0,1,4.76,2.09,8.45,8.45,0,0,1,2.63,4.37,7.09,7.09,0,0,1,.16.94,5.46,5.46,0,0,1,0,.56l.76-.21C225.92,244.24,225.9,244.11,225.89,244Zm-17.13.29a12.44,12.44,0,0,1-1.68,1l.16.79a15.1,15.1,0,0,0,2-1.2c3.24-2.34,5.37-.4,7.64,1.66l.3.28.87-.24-.66-.6C215.09,243.9,212.5,241.55,208.76,244.24Z" transform="translate(-24.12 -45.25)"/></svg>